<?xml version="1.0" encoding="UTF-8" standalone="no"?>
<!-- Created with Inkscape (http://www.inkscape.org/) -->

<svg
   xmlns:dc="http://purl.org/dc/elements/1.1/"
   xmlns:cc="http://creativecommons.org/ns#"
   xmlns:rdf="http://www.w3.org/1999/02/22-rdf-syntax-ns#"
   xmlns:svg="http://www.w3.org/2000/svg"
   xmlns="http://www.w3.org/2000/svg"
   xmlns:sodipodi="http://sodipodi.sourceforge.net/DTD/sodipodi-0.dtd"
   xmlns:inkscape="http://www.inkscape.org/namespaces/inkscape"
   width="423.46097"
   height="92.237793"
   id="svg5198"
   version="1.1"
   inkscape:version="0.48.1 r9760"
   sodipodi:docname="button_read_about_it.svg">
  <defs
     id="defs5200" />
  <sodipodi:namedview
     id="base"
     pagecolor="#ffffff"
     bordercolor="#666666"
     borderopacity="1.0"
     inkscape:pageopacity="0.0"
     inkscape:pageshadow="2"
     inkscape:zoom="0.69702273"
     inkscape:cx="115.699"
     inkscape:cy="19.571363"
     inkscape:document-units="px"
     inkscape:current-layer="layer1"
     showgrid="false"
     inkscape:window-width="993"
     inkscape:window-height="534"
     inkscape:window-x="235"
     inkscape:window-y="119"
     inkscape:window-maximized="0"
     fit-margin-top="0"
     fit-margin-left="0"
     fit-margin-right="0"
     fit-margin-bottom="0" />
  <metadata
     id="metadata5203">
    <rdf:RDF>
      <cc:Work
         rdf:about="">
        <dc:format>image/svg+xml</dc:format>
        <dc:type
           rdf:resource="http://purl.org/dc/dcmitype/StillImage" />
        <dc:title />
      </cc:Work>
    </rdf:RDF>
  </metadata>
  <g
     inkscape:label="Layer 1"
     inkscape:groupmode="layer"
     id="layer1"
     transform="translate(-255.625,-175.43794)">
    <rect
       style="fill:#f7821c;fill-opacity:1;stroke:#66ff00;stroke-width:7.49999952;stroke-linecap:round;stroke-linejoin:round;stroke-miterlimit:4;stroke-opacity:1;stroke-dasharray:none;stroke-dashoffset:0"
       id="rect5724"
       width="415.96097"
       height="84.737793"
       x="259.375"
       y="179.18794"
       rx="33.390923"
       ry="33.390923" />
    <g
       style="font-size:56px;font-style:normal;font-variant:normal;font-weight:normal;font-stretch:normal;line-height:125%;letter-spacing:0px;word-spacing:0px;fill:#faffe0;fill-opacity:1;stroke:none;font-family:Hiragino Maru Gothic Pro;-inkscape-font-specification:Hiragino Maru Gothic Pro"
       id="text5206">
      <path
         d="m 291.64126,237.35044 c 0,1.512 1.064,2.24 2.632,2.24 1.39999,0 2.52,-0.728 2.52,-2.24 l 0,-15.568 c 0.056,-2.352 0.896,-4.48 2.408,-6.272 1.39999,-1.792 3.248,-3.024 5.656,-3.08 1.176,0 1.904,0.168 2.744,0.336 0.168,0.056 0.336,0.056 0.504,0.056 1.176,0 1.96,-1.008 2.184,-2.24 0.056,-0.336 0.112,-0.672 0.112,-0.952 0,-1.064 -0.504,-1.848 -1.792,-2.016 -0.784,-0.168 -1.4,-0.28 -2.296,-0.28 -0.392,0 -0.784,0 -1.232,0.056 -4.816,0.168 -7.728,3.696 -8.624,6.384 0.112,-0.896 0.336,-1.848 0.336,-2.632 l 0,-1.288 c 0,-1.456 -1.12001,-2.184 -2.52,-2.184 -1.568,0 -2.632,0.728 -2.632,2.184 l 0,27.496"
         id="path5784"
         inkscape:connector-curvature="0" />
      <path
         d="m 338.59988,224.58244 c 1.792,0 2.856,-1.064 2.856,-3.08 0,-0.168 0,-0.28 0,-0.448 -0.56,-7.39199 -5.20801,-13.832 -13.44,-13.832 -9.18399,0 -14.28,6.83201 -14.28,16.576 0,9.74399 5.37601,16.296 14.616,16.296 7.33599,0 10.584,-3.696 12.432,-7.448 0.224,-0.336 0.28,-0.672 0.28,-1.008 0,-1.008 -0.784,-1.68 -1.736,-1.96 -0.448,-0.112 -0.84,-0.224 -1.232,-0.224 -0.784,0 -1.512,0.392 -2.016,1.4 -1.344,2.968 -3.584,5.04 -7.672,5.04 -6.10399,0 -9.52,-4.368 -9.632,-11.312 l 19.824,0 m -19.656,-4.088 c 0.728,-5.54399 3.64001,-9.128 9.072,-9.128 5.208,0 7.616,4.08801 8.288,8.12 0,0.112 0,0.224 0,0.28 0,0.504 -0.224,0.728 -0.84,0.728 l -16.52,0"
         id="path5786"
         inkscape:connector-curvature="0" />
      <path
         d="m 366.66288,219.31844 c -6.04799,0.112 -8.96,0.448 -12.096,1.288 -5.31999,1.456 -8.512,4.81601 -8.512,10.136 0,5.824 3.80801,9.296 10.024,9.296 5.544,0 8.568,-2.184 10.696,-4.592 0.056,1.12 0.168,2.128 0.336,2.8 0.224,1.008 1.232,1.344 2.352,1.344 0.168,0 0.336,0 0.504,0 1.4,-0.112 2.296,-0.896 2.296,-1.792 0,-0.168 -0.056,-0.392 -0.112,-0.56 -0.336,-1.064 -0.672,-3.024 -0.672,-4.984 l 0,-15.4 c 0,-6.66399 -3.69601,-9.632 -11.256,-9.632 -4.53599,0 -7.112,0.952 -9.072,2.464 -1.288,1.008 -2.744,2.688 -3.304,4.424 -0.056,0.224 -0.112,0.448 -0.112,0.672 0,1.008 0.784,1.792 1.848,2.128 0.392,0.168 0.84,0.224 1.288,0.224 0.952,0 1.792,-0.392 2.184,-1.456 0.952,-2.576 3.02401,-4.144 7.112,-4.144 4.48,0 6.496,1.62401 6.496,5.32 l 0,2.464 m 0,7.84 c 0,2.128 -0.392,3.192 -1.456,4.536 -1.848,2.24 -4.76,4.032 -8.288,4.032 -3.416,0 -5.656,-2.016 -5.656,-4.928 0,-2.688 1.176,-4.48 3.416,-5.6 2.296,-1.12 5.37601,-1.68 11.984,-1.848 l 0,3.808"
         id="path5788"
         inkscape:connector-curvature="0" />
      <path
         d="m 402.00851,209.51844 c 0,1.232 0.112,2.912 0.224,4.2 -1.96,-4.03199 -5.09601,-6.496 -10.36,-6.496 -8.344,0 -13.496,6.38401 -13.496,16.24 0,10.13599 5.208,16.632 13.44,16.632 5.26399,0 8.456,-2.408 10.36,-6.384 -0.056,0.784 -0.168,2.016 -0.168,2.632 l 0,1.176 c 0,1.176 0.784,2.072 2.464,2.072 1.56799,0 2.576,-0.728 2.576,-2.24 l 0,-40.096 c 0,-1.512 -0.95201,-2.24 -2.52,-2.24 -1.456,0 -2.52,0.728 -2.52,2.24 l 0,12.264 m -9.464,2.128 c 6.21599,0 9.576,5.04001 9.576,11.928 0,7 -3.64001,12.152 -9.576,12.152 -5.712,0 -8.96,-4.81601 -8.96,-12.208 0,-7.16799 3.248,-11.872 8.96,-11.872"
         id="path5790"
         inkscape:connector-curvature="0" />
      <path
         d="m 452.95976,219.31844 c -6.048,0.112 -8.96001,0.448 -12.096,1.288 -5.32,1.456 -8.512,4.81601 -8.512,10.136 0,5.824 3.808,9.296 10.024,9.296 5.54399,0 8.568,-2.184 10.696,-4.592 0.056,1.12 0.168,2.128 0.336,2.8 0.224,1.008 1.232,1.344 2.352,1.344 0.168,0 0.336,0 0.504,0 1.39999,-0.112 2.296,-0.896 2.296,-1.792 0,-0.168 -0.056,-0.392 -0.112,-0.56 -0.336,-1.064 -0.672,-3.024 -0.672,-4.984 l 0,-15.4 c 0,-6.66399 -3.69601,-9.632 -11.256,-9.632 -4.536,0 -7.11201,0.952 -9.072,2.464 -1.288,1.008 -2.744,2.688 -3.304,4.424 -0.056,0.224 -0.112,0.448 -0.112,0.672 0,1.008 0.784,1.792 1.848,2.128 0.392,0.168 0.84,0.224 1.288,0.224 0.952,0 1.792,-0.392 2.184,-1.456 0.952,-2.576 3.024,-4.144 7.112,-4.144 4.47999,0 6.496,1.62401 6.496,5.32 l 0,2.464 m 0,7.84 c 0,2.128 -0.392,3.192 -1.456,4.536 -1.848,2.24 -4.76001,4.032 -8.288,4.032 -3.416,0 -5.656,-2.016 -5.656,-4.928 0,-2.688 1.176,-4.48 3.416,-5.6 2.29599,-1.12 5.376,-1.68 11.984,-1.848 l 0,3.808"
         id="path5792"
         inkscape:connector-curvature="0" />
      <path
         d="m 471.16938,236.34244 c 0,-0.728 -0.112,-1.904 -0.224,-2.744 1.792,3.976 5.20801,6.496 10.36,6.496 8.34399,0 13.496,-6.72001 13.496,-16.632 0,-10.02399 -4.87201,-16.24 -13.328,-16.24 -5.15199,0 -8.512,2.40801 -10.584,6.44 0.168,-1.288 0.28,-2.968 0.28,-4.144 l 0,-12.264 c 0,-1.512 -1.008,-2.24 -2.464,-2.24 -1.568,0 -2.52,0.728 -2.52,2.24 l 0,40.096 c 0,1.512 0.952,2.24 2.52,2.24 1.624,0 2.464,-0.84 2.464,-2.072 l 0,-1.176 m 9.632,-24.696 c 5.656,0 8.792,4.53601 8.792,11.872 0,7.27999 -3.248,12.152 -8.96,12.152 -5.87999,0 -9.576,-5.096 -9.576,-12.096 0,-6.94399 3.58401,-11.928 9.744,-11.928"
         id="path5794"
         inkscape:connector-curvature="0" />
      <path
         d="m 514.50813,207.22244 c -9.12799,0 -14.616,6.60801 -14.616,16.352 0,10.02399 5.43201,16.576 14.728,16.576 8.79199,0 14.224,-6.77601 14.224,-16.576 0,-9.79999 -5.32001,-16.352 -14.336,-16.352 m 0.168,4.368 c 5.768,0 8.96,4.81601 8.96,11.928 0,7.50399 -3.192,12.32 -9.352,12.32 -5.82399,0 -9.184,-4.92801 -9.184,-12.096 0,-7.50399 3.47201,-12.152 9.576,-12.152"
         id="path5796"
         inkscape:connector-curvature="0" />
      <path
         d="m 535.19576,229.06244 c 0,6.888 3.696,11.032 10.36,11.032 5.59999,0 8.904,-2.856 10.64,-6.832 -0.168,0.896 -0.336,2.072 -0.336,2.688 l 0,1.568 c 0,1.4 1.064,2.072 2.576,2.072 1.51199,0 2.52,-0.728 2.52,-2.24 l 0,-27.44 c 0,-1.512 -1.06401,-2.24 -2.576,-2.24 -1.512,0 -2.576,0.728 -2.576,2.24 l 0,15.68 c 0,2.24 -0.56,3.976 -1.904,5.88 -1.904,2.632 -4.36801,4.088 -7.336,4.088 -4.2,0 -6.16,-2.744 -6.16,-7.56 l 0,-18.088 c 0,-1.512 -1.06401,-2.24 -2.576,-2.24 -1.512,0 -2.632,0.728 -2.632,2.24 l 0,19.152"
         id="path5798"
         inkscape:connector-curvature="0" />
      <path
         d="m 572.41126,208.00644 -4.368,0 c -1.4,0 -2.016,0.952 -2.016,2.24 0,1.344 0.616,2.24 1.96,2.24 l 4.424,0 0,19.32 c 0,5.936 3.36,8.232 8.008,8.232 2.40799,0 3.92,-0.448 5.6,-1.232 0.84,-0.448 1.176,-1.232 1.176,-2.016 0,-0.392 -0.056,-0.84 -0.224,-1.232 -0.336,-0.896 -1.008,-1.512 -1.848,-1.512 -0.392,0 -0.728,0.112 -1.064,0.28 -0.952,0.616 -1.90401,1.008 -3.304,1.008 -2.072,0 -3.248,-1.232 -3.248,-3.976 l 0,-18.872 7.168,0 c 1.39999,0 2.128,-0.896 2.128,-2.24 0,-1.344 -0.67201,-2.24 -2.128,-2.24 l -7.168,0 0,-6.832 c 0,-1.456 -1.12001,-2.24 -2.576,-2.24 -1.568,0 -2.52,0.784 -2.52,2.24 l 0,6.832"
         id="path5800"
         inkscape:connector-curvature="0" />
      <path
         d="m 610.66976,237.35044 c 0,1.512 0.952,2.24 2.52,2.24 1.51199,0 2.576,-0.728 2.576,-2.24 l 0,-27.496 c 0,-1.456 -1.06401,-2.184 -2.576,-2.184 -1.568,0 -2.52,0.728 -2.52,2.184 l 0,27.496 m 2.576,-42.392 c -2.128,0 -3.864,1.624 -3.864,3.752 0,2.184 1.736,3.808 3.864,3.808 2.07199,0 3.752,-1.624 3.752,-3.808 0,-2.128 -1.68001,-3.752 -3.752,-3.752"
         id="path5802"
         inkscape:connector-curvature="0" />
      <path
         d="m 627.20813,208.00644 -4.368,0 c -1.4,0 -2.016,0.952 -2.016,2.24 0,1.344 0.616,2.24 1.96,2.24 l 4.424,0 0,19.32 c 0,5.936 3.36001,8.232 8.008,8.232 2.408,0 3.92,-0.448 5.6,-1.232 0.84,-0.448 1.176,-1.232 1.176,-2.016 0,-0.392 -0.056,-0.84 -0.224,-1.232 -0.336,-0.896 -1.008,-1.512 -1.848,-1.512 -0.392,0 -0.728,0.112 -1.064,0.28 -0.952,0.616 -1.904,1.008 -3.304,1.008 -2.072,0 -3.248,-1.232 -3.248,-3.976 l 0,-18.872 7.168,0 c 1.4,0 2.128,-0.896 2.128,-2.24 0,-1.344 -0.672,-2.24 -2.128,-2.24 l -7.168,0 0,-6.832 c 0,-1.456 -1.12,-2.24 -2.576,-2.24 -1.568,0 -2.52,0.784 -2.52,2.24 l 0,6.832"
         id="path5804"
         inkscape:connector-curvature="0" />
    </g>
  </g>
</svg>
