<?xml version="1.0" encoding="UTF-8" standalone="no"?>
<!-- Created with Inkscape (http://www.inkscape.org/) -->

<svg
   xmlns:dc="http://purl.org/dc/elements/1.1/"
   xmlns:cc="http://creativecommons.org/ns#"
   xmlns:rdf="http://www.w3.org/1999/02/22-rdf-syntax-ns#"
   xmlns:svg="http://www.w3.org/2000/svg"
   xmlns="http://www.w3.org/2000/svg"
   xmlns:sodipodi="http://sodipodi.sourceforge.net/DTD/sodipodi-0.dtd"
   xmlns:inkscape="http://www.inkscape.org/namespaces/inkscape"
   width="199.65625"
   height="92.25"
   id="svg5198"
   version="1.1"
   inkscape:version="0.48.1 r9760"
   sodipodi:docname="button_try_it.svg">
  <defs
     id="defs5200" />
  <sodipodi:namedview
     id="base"
     pagecolor="#ffffff"
     bordercolor="#666666"
     borderopacity="1.0"
     inkscape:pageopacity="0.0"
     inkscape:pageshadow="2"
     inkscape:zoom="0.30027685"
     inkscape:cx="116.42224"
     inkscape:cy="-258.49359"
     inkscape:document-units="px"
     inkscape:current-layer="layer1"
     showgrid="false"
     inkscape:window-width="993"
     inkscape:window-height="534"
     inkscape:window-x="224"
     inkscape:window-y="113"
     inkscape:window-maximized="0"
     fit-margin-top="0"
     fit-margin-left="0"
     fit-margin-right="0"
     fit-margin-bottom="0" />
  <metadata
     id="metadata5203">
    <rdf:RDF>
      <cc:Work
         rdf:about="">
        <dc:format>image/svg+xml</dc:format>
        <dc:type
           rdf:resource="http://purl.org/dc/dcmitype/StillImage" />
        <dc:title></dc:title>
      </cc:Work>
    </rdf:RDF>
  </metadata>
  <g
     inkscape:label="Layer 1"
     inkscape:groupmode="layer"
     id="layer1"
     transform="translate(-255.625,-175.4375)">
    <rect
       style="fill:#f7821c;fill-opacity:1;stroke:#66ff00;stroke-width:7.5;stroke-linecap:round;stroke-linejoin:round;stroke-miterlimit:4;stroke-opacity:1;stroke-dasharray:none;stroke-dashoffset:0"
       id="rect5724"
       width="192.1519"
       height="84.737793"
       x="259.375"
       y="179.18794"
       rx="33.390923"
       ry="33.390923"
       inkscape:export-filename="/Users/joris/Documents/workspace/annotator_test/annotator/images/button_try_it.svg.png"
       inkscape:export-xdpi="300"
       inkscape:export-ydpi="300" />
    <g
       style="font-size:56px;font-style:normal;font-variant:normal;font-weight:normal;font-stretch:normal;line-height:125%;letter-spacing:0px;word-spacing:0px;fill:#faffe0;fill-opacity:1;stroke:none;font-family:Hiragino Maru Gothic Pro;-inkscape-font-specification:Hiragino Maru Gothic Pro"
       id="text5206"
       inkscape:export-filename="/Users/joris/Documents/workspace/annotator_test/annotator/images/button_try_it.svg.png"
       inkscape:export-xdpi="300"
       inkscape:export-ydpi="300">
      <path
         d="m 294.16126,208.00644 -4.368,0 c -1.4,0 -2.016,0.952 -2.016,2.24 0,1.344 0.616,2.24 1.96,2.24 l 4.424,0 0,19.32 c 0,5.936 3.36,8.232 8.008,8.232 2.40799,0 3.92,-0.448 5.6,-1.232 0.84,-0.448 1.176,-1.232 1.176,-2.016 0,-0.392 -0.056,-0.84 -0.224,-1.232 -0.336,-0.896 -1.008,-1.512 -1.848,-1.512 -0.392,0 -0.728,0.112 -1.064,0.28 -0.952,0.616 -1.90401,1.008 -3.304,1.008 -2.072,0 -3.248,-1.232 -3.248,-3.976 l 0,-18.872 7.168,0 c 1.39999,0 2.128,-0.896 2.128,-2.24 0,-1.344 -0.67201,-2.24 -2.128,-2.24 l -7.168,0 0,-6.832 c 0,-1.456 -1.12001,-2.24 -2.576,-2.24 -1.568,0 -2.52,0.784 -2.52,2.24 l 0,6.832"
         id="path5807"
         inkscape:connector-curvature="0" />
      <path
         d="m 314.39126,237.35044 c 0,1.512 1.064,2.24 2.632,2.24 1.39999,0 2.52,-0.728 2.52,-2.24 l 0,-15.568 c 0.056,-2.352 0.896,-4.48 2.408,-6.272 1.39999,-1.792 3.248,-3.024 5.656,-3.08 1.176,0 1.904,0.168 2.744,0.336 0.168,0.056 0.336,0.056 0.504,0.056 1.176,0 1.96,-1.008 2.184,-2.24 0.056,-0.336 0.112,-0.672 0.112,-0.952 0,-1.064 -0.504,-1.848 -1.792,-2.016 -0.784,-0.168 -1.4,-0.28 -2.296,-0.28 -0.392,0 -0.784,0 -1.232,0.056 -4.816,0.168 -7.728,3.696 -8.624,6.384 0.112,-0.896 0.336,-1.848 0.336,-2.632 l 0,-1.288 c 0,-1.456 -1.12001,-2.184 -2.52,-2.184 -1.568,0 -2.632,0.728 -2.632,2.184 l 0,27.496"
         id="path5809"
         inkscape:connector-curvature="0" />
      <path
         d="m 351.26988,227.94244 c -0.616,1.624 -1.4,3.752 -1.848,5.488 -0.504,-1.736 -1.008,-3.808 -1.68,-5.6 l -7.112,-18.76 c -0.392,-1.008 -1.232,-1.4 -2.128,-1.4 -0.392,0 -0.84,0.056 -1.232,0.168 -1.008,0.336 -1.848,1.176 -1.848,2.184 0,0.28 0.056,0.616 0.168,0.952 l 11.424,27.608 -1.624,3.92 c -1.008,2.632 -2.184,4.76 -4.592,4.76 -1.008,0 -2.016,-0.392 -2.8,-0.728 -0.448,-0.168 -0.784,-0.224 -1.12,-0.224 -0.952,0 -1.68,0.616 -2.072,1.568 -0.168,0.448 -0.28,0.84 -0.28,1.288 0,0.84 0.448,1.624 1.568,2.072 1.288,0.504 2.688,0.728 4.088,0.728 5.488,0 7.84,-3.248 9.8,-8.064 l 13.328,-32.984 c 0.112,-0.392 0.168,-0.728 0.168,-1.008 0,-1.008 -0.784,-1.792 -1.904,-2.072 -0.336,-0.056 -0.672,-0.112 -1.008,-0.112 -0.952,0 -1.792,0.392 -2.184,1.456 l -7.112,18.76"
         id="path5811"
         inkscape:connector-curvature="0" />
      <path
         d="m 387.87288,237.35044 c 0,1.512 0.952,2.24 2.52,2.24 1.512,0 2.576,-0.728 2.576,-2.24 l 0,-27.496 c 0,-1.456 -1.064,-2.184 -2.576,-2.184 -1.568,0 -2.52,0.728 -2.52,2.184 l 0,27.496 m 2.576,-42.392 c -2.128,0 -3.864,1.624 -3.864,3.752 0,2.184 1.736,3.808 3.864,3.808 2.072,0 3.752,-1.624 3.752,-3.808 0,-2.128 -1.68,-3.752 -3.752,-3.752"
         id="path5813"
         inkscape:connector-curvature="0" />
      <path
         d="m 404.41126,208.00644 -4.368,0 c -1.4,0 -2.016,0.952 -2.016,2.24 0,1.344 0.616,2.24 1.96,2.24 l 4.424,0 0,19.32 c 0,5.936 3.36,8.232 8.008,8.232 2.40799,0 3.92,-0.448 5.6,-1.232 0.84,-0.448 1.176,-1.232 1.176,-2.016 0,-0.392 -0.056,-0.84 -0.224,-1.232 -0.336,-0.896 -1.008,-1.512 -1.848,-1.512 -0.392,0 -0.728,0.112 -1.064,0.28 -0.952,0.616 -1.90401,1.008 -3.304,1.008 -2.072,0 -3.248,-1.232 -3.248,-3.976 l 0,-18.872 7.168,0 c 1.39999,0 2.128,-0.896 2.128,-2.24 0,-1.344 -0.67201,-2.24 -2.128,-2.24 l -7.168,0 0,-6.832 c 0,-1.456 -1.12001,-2.24 -2.576,-2.24 -1.568,0 -2.52,0.784 -2.52,2.24 l 0,6.832"
         id="path5815"
         inkscape:connector-curvature="0" />
    </g>
  </g>
</svg>
