<?xml version="1.0" encoding="UTF-8" standalone="no"?>
<!-- Created with Inkscape (http://www.inkscape.org/) -->

<svg
   xmlns:dc="http://purl.org/dc/elements/1.1/"
   xmlns:cc="http://creativecommons.org/ns#"
   xmlns:rdf="http://www.w3.org/1999/02/22-rdf-syntax-ns#"
   xmlns:svg="http://www.w3.org/2000/svg"
   xmlns="http://www.w3.org/2000/svg"
   xmlns:sodipodi="http://sodipodi.sourceforge.net/DTD/sodipodi-0.dtd"
   xmlns:inkscape="http://www.inkscape.org/namespaces/inkscape"
   width="626.61603"
   height="434.6474"
   id="svg2"
   version="1.1"
   inkscape:version="0.48.1 r9760"
   sodipodi:docname="butterfly.svg">
  <defs
     id="defs4">
    <clipPath
       id="clipPath3349"
       clipPathUnits="userSpaceOnUse">
      <rect
         style="fill:#f3f4fc;fill-opacity:1;stroke:none"
         id="rect3351"
         width="332.18851"
         height="238.21806"
         x="2313.3489"
         y="327.53268"
         clip-path="none" />
    </clipPath>
    <filter
       color-interpolation-filters="sRGB"
       x="0"
       y="0"
       width="1"
       height="1"
       inkscape:menu-tooltip="Removes or decreases glows and jaggeries around objects edges after applying some filters"
       inkscape:menu="ABCs"
       inkscape:label="Clean edges"
       id="filter3381">
      <feGaussianBlur
         stdDeviation="0.4"
         result="result6"
         id="feGaussianBlur3383" />
      <feComposite
         result="result7"
         in="SourceGraphic"
         operator="in"
         id="feComposite3385"
         in2="result6" />
      <feComposite
         in="result7"
         result="result8"
         operator="in"
         id="feComposite3387"
         in2="result7" />
    </filter>
    <filter
       color-interpolation-filters="sRGB"
       x="0"
       y="0"
       width="1"
       height="1"
       inkscape:menu-tooltip="Removes or decreases glows and jaggeries around objects edges after applying some filters"
       inkscape:menu="ABCs"
       inkscape:label="Clean edges"
       id="filter3373">
      <feGaussianBlur
         stdDeviation="0.4"
         result="result6"
         id="feGaussianBlur3375" />
      <feComposite
         result="result7"
         in="SourceGraphic"
         operator="in"
         id="feComposite3377"
         in2="result6" />
      <feComposite
         in="result7"
         result="result8"
         operator="in"
         id="feComposite3379"
         in2="result7" />
    </filter>
    <filter
       color-interpolation-filters="sRGB"
       x="0"
       y="0"
       width="1"
       height="1"
       inkscape:menu-tooltip="Removes or decreases glows and jaggeries around objects edges after applying some filters"
       inkscape:menu="ABCs"
       inkscape:label="Clean edges"
       id="filter3365">
      <feGaussianBlur
         stdDeviation="0.4"
         result="result6"
         id="feGaussianBlur3367" />
      <feComposite
         result="result7"
         in="SourceGraphic"
         operator="in"
         id="feComposite3369"
         in2="result6" />
      <feComposite
         in="result7"
         result="result8"
         operator="in"
         id="feComposite3371"
         in2="result7" />
    </filter>
    <filter
       color-interpolation-filters="sRGB"
       x="0"
       y="0"
       width="1"
       height="1"
       inkscape:menu-tooltip="Removes or decreases glows and jaggeries around objects edges after applying some filters"
       inkscape:menu="ABCs"
       inkscape:label="Clean edges"
       id="filter3357">
      <feGaussianBlur
         stdDeviation="0.4"
         result="result6"
         id="feGaussianBlur3359" />
      <feComposite
         result="result7"
         in="SourceGraphic"
         operator="in"
         id="feComposite3361"
         in2="result6" />
      <feComposite
         in="result7"
         result="result8"
         operator="in"
         id="feComposite3363"
         in2="result7" />
    </filter>
    <filter
       color-interpolation-filters="sRGB"
       x="0"
       y="0"
       width="1"
       height="1"
       inkscape:menu-tooltip="Removes or decreases glows and jaggeries around objects edges after applying some filters"
       inkscape:menu="ABCs"
       inkscape:label="Clean edges"
       id="filter3349">
      <feGaussianBlur
         stdDeviation="0.4"
         result="result6"
         id="feGaussianBlur3351" />
      <feComposite
         result="result7"
         in="SourceGraphic"
         operator="in"
         id="feComposite3353"
         in2="result6" />
      <feComposite
         in="result7"
         result="result8"
         operator="in"
         id="feComposite3355"
         in2="result7" />
    </filter>
    <filter
       color-interpolation-filters="sRGB"
       x="0"
       y="0"
       width="1"
       height="1"
       inkscape:menu-tooltip="Removes or decreases glows and jaggeries around objects edges after applying some filters"
       inkscape:menu="ABCs"
       inkscape:label="Clean edges"
       id="filter3341">
      <feGaussianBlur
         stdDeviation="0.4"
         result="result6"
         id="feGaussianBlur3343" />
      <feComposite
         result="result7"
         in="SourceGraphic"
         operator="in"
         id="feComposite3345"
         in2="result6" />
      <feComposite
         in="result7"
         result="result8"
         operator="in"
         id="feComposite3347"
         in2="result7" />
    </filter>
    <filter
       color-interpolation-filters="sRGB"
       x="0"
       y="0"
       width="1"
       height="1"
       inkscape:menu-tooltip="Removes or decreases glows and jaggeries around objects edges after applying some filters"
       inkscape:menu="ABCs"
       inkscape:label="Clean edges"
       id="filter3333">
      <feGaussianBlur
         stdDeviation="0.4"
         result="result6"
         id="feGaussianBlur3335" />
      <feComposite
         result="result7"
         in="SourceGraphic"
         operator="in"
         id="feComposite3337"
         in2="result6" />
      <feComposite
         in="result7"
         result="result8"
         operator="in"
         id="feComposite3339"
         in2="result7" />
    </filter>
    <inkscape:perspective
       sodipodi:type="inkscape:persp3d"
       inkscape:vp_x="0 : 0.5 : 1"
       inkscape:vp_y="0 : 1000 : 0"
       inkscape:vp_z="1 : 0.5 : 1"
       inkscape:persp3d-origin="0.5 : 0.33333333 : 1"
       id="perspective4198" />
    <inkscape:perspective
       sodipodi:type="inkscape:persp3d"
       inkscape:vp_x="0 : 0.5 : 1"
       inkscape:vp_y="0 : 1000 : 0"
       inkscape:vp_z="1 : 0.5 : 1"
       inkscape:persp3d-origin="0.5 : 0.33333333 : 1"
       id="perspective4107" />
    <inkscape:perspective
       sodipodi:type="inkscape:persp3d"
       inkscape:vp_x="0 : 0.5 : 1"
       inkscape:vp_y="0 : 1000 : 0"
       inkscape:vp_z="1 : 0.5 : 1"
       inkscape:persp3d-origin="0.5 : 0.33333333 : 1"
       id="perspective4036" />
    <inkscape:perspective
       sodipodi:type="inkscape:persp3d"
       inkscape:vp_x="0 : 0.5 : 1"
       inkscape:vp_y="0 : 1000 : 0"
       inkscape:vp_z="1 : 0.5 : 1"
       inkscape:persp3d-origin="0.5 : 0.33333333 : 1"
       id="perspective3898" />
    <inkscape:perspective
       sodipodi:type="inkscape:persp3d"
       inkscape:vp_x="0 : 0.5 : 1"
       inkscape:vp_y="0 : 1000 : 0"
       inkscape:vp_z="1 : 0.5 : 1"
       inkscape:persp3d-origin="0.5 : 0.33333333 : 1"
       id="perspective4319" />
    <inkscape:perspective
       sodipodi:type="inkscape:persp3d"
       inkscape:vp_x="0 : 0.5 : 1"
       inkscape:vp_y="0 : 1000 : 0"
       inkscape:vp_z="1 : 0.5 : 1"
       inkscape:persp3d-origin="0.5 : 0.33333333 : 1"
       id="perspective4227" />
    <font
       vert-adv-y="90"
       vert-origin-y="90"
       vert-origin-x="45"
       horiz-origin-y="0"
       horiz-origin-x="0"
       inkscape:label="font 1"
       id="font3854"
       horiz-adv-x="1024">
      <font-face
         font-family="SVGFont 1"
         id="font-face3856"
         units-per-em="1024" />
      <missing-glyph
         id="missing-glyph3858"
         d="M0,0h1000v1024h-1000z" />
    </font>
    <inkscape:perspective
       sodipodi:type="inkscape:persp3d"
       inkscape:vp_x="0 : 0.5 : 1"
       inkscape:vp_y="0 : 1000 : 0"
       inkscape:vp_z="1 : 0.5 : 1"
       inkscape:persp3d-origin="0.5 : 0.33333333 : 1"
       id="perspective3840" />
    <inkscape:perspective
       sodipodi:type="inkscape:persp3d"
       inkscape:vp_x="0 : 0.5 : 1"
       inkscape:vp_y="0 : 1000 : 0"
       inkscape:vp_z="1 : 0.5 : 1"
       inkscape:persp3d-origin="0.5 : 0.33333333 : 1"
       id="perspective3253" />
    <inkscape:perspective
       sodipodi:type="inkscape:persp3d"
       inkscape:vp_x="0 : 0.5 : 1"
       inkscape:vp_y="0 : 1000 : 0"
       inkscape:vp_z="1 : 0.5 : 1"
       inkscape:persp3d-origin="0.5 : 0.33333333 : 1"
       id="perspective3182" />
    <inkscape:perspective
       sodipodi:type="inkscape:persp3d"
       inkscape:vp_x="0 : 0.5 : 1"
       inkscape:vp_y="0 : 1000 : 0"
       inkscape:vp_z="1 : 0.5 : 1"
       inkscape:persp3d-origin="0.5 : 0.33333333 : 1"
       id="perspective3111" />
    <inkscape:perspective
       sodipodi:type="inkscape:persp3d"
       inkscape:vp_x="0 : 0.5 : 1"
       inkscape:vp_y="0 : 1000 : 0"
       inkscape:vp_z="1 : 0.5 : 1"
       inkscape:persp3d-origin="0.5 : 0.33333333 : 1"
       id="perspective3017" />
    <inkscape:perspective
       sodipodi:type="inkscape:persp3d"
       inkscape:vp_x="0 : 339.5 : 1"
       inkscape:vp_y="0 : 1000 : 0"
       inkscape:vp_z="505 : 339.5 : 1"
       inkscape:persp3d-origin="252.5 : 226.33333 : 1"
       id="perspective3230" />
    <inkscape:perspective
       sodipodi:type="inkscape:persp3d"
       inkscape:vp_x="0 : 0.5 : 1"
       inkscape:vp_y="0 : 1000 : 0"
       inkscape:vp_z="1 : 0.5 : 1"
       inkscape:persp3d-origin="0.5 : 0.33333333 : 1"
       id="perspective2977" />
    <inkscape:perspective
       sodipodi:type="inkscape:persp3d"
       inkscape:vp_x="0 : 0.5 : 1"
       inkscape:vp_y="0 : 1000 : 0"
       inkscape:vp_z="1 : 0.5 : 1"
       inkscape:persp3d-origin="0.5 : 0.33333333 : 1"
       id="perspective2945" />
    <inkscape:perspective
       sodipodi:type="inkscape:persp3d"
       inkscape:vp_x="0 : 0.5 : 1"
       inkscape:vp_y="0 : 1000 : 0"
       inkscape:vp_z="1 : 0.5 : 1"
       inkscape:persp3d-origin="0.5 : 0.33333333 : 1"
       id="perspective2913" />
    <inkscape:perspective
       sodipodi:type="inkscape:persp3d"
       inkscape:vp_x="0 : 0.5 : 1"
       inkscape:vp_y="0 : 1000 : 0"
       inkscape:vp_z="1 : 0.5 : 1"
       inkscape:persp3d-origin="0.5 : 0.33333333 : 1"
       id="perspective2899" />
    <inkscape:perspective
       sodipodi:type="inkscape:persp3d"
       inkscape:vp_x="0 : 0.5 : 1"
       inkscape:vp_y="0 : 1000 : 0"
       inkscape:vp_z="1 : 0.5 : 1"
       inkscape:persp3d-origin="0.5 : 0.33333333 : 1"
       id="perspective2885" />
    <inkscape:perspective
       sodipodi:type="inkscape:persp3d"
       inkscape:vp_x="0 : 0.5 : 1"
       inkscape:vp_y="0 : 1000 : 0"
       inkscape:vp_z="1 : 0.5 : 1"
       inkscape:persp3d-origin="0.5 : 0.33333333 : 1"
       id="perspective2871" />
    <inkscape:perspective
       sodipodi:type="inkscape:persp3d"
       inkscape:vp_x="0 : 0.5 : 1"
       inkscape:vp_y="0 : 1000 : 0"
       inkscape:vp_z="1 : 0.5 : 1"
       inkscape:persp3d-origin="0.5 : 0.33333333 : 1"
       id="perspective2858" />
    <inkscape:perspective
       id="perspective10"
       inkscape:persp3d-origin="372.04724 : 350.78739 : 1"
       inkscape:vp_z="744.09448 : 526.18109 : 1"
       inkscape:vp_y="0 : 1000 : 0"
       inkscape:vp_x="0 : 526.18109 : 1"
       sodipodi:type="inkscape:persp3d" />
  </defs>
  <sodipodi:namedview
     id="base"
     pagecolor="#ffffff"
     bordercolor="#666666"
     borderopacity="1.0"
     inkscape:pageopacity="0.0"
     inkscape:pageshadow="2"
     inkscape:zoom="1.1187074"
     inkscape:cx="313.30801"
     inkscape:cy="173.04052"
     inkscape:document-units="px"
     inkscape:current-layer="g4285"
     showgrid="false"
     inkscape:window-width="1181"
     inkscape:window-height="740"
     inkscape:window-x="29"
     inkscape:window-y="0"
     inkscape:window-maximized="0"
     showguides="true"
     inkscape:guide-bbox="true"
     fit-margin-top="0"
     fit-margin-left="0"
     fit-margin-right="0"
     fit-margin-bottom="0" />
  <metadata
     id="metadata7">
    <rdf:RDF>
      <cc:Work
         rdf:about="">
        <dc:format>image/svg+xml</dc:format>
        <dc:type
           rdf:resource="http://purl.org/dc/dcmitype/StillImage" />
      </cc:Work>
    </rdf:RDF>
  </metadata>
  <g
     inkscape:label="Layer 1"
     inkscape:groupmode="layer"
     id="layer1"
     transform="translate(-23.022181,-195.7655)">
    <g
       id="g4285"
       transform="translate(-40.480585,-113.95194)"
       inkscape:export-filename="/Users/joris/Documents/workspace/annotator_test/annotator/images/butterfly.png"
       inkscape:export-xdpi="300"
       inkscape:export-ydpi="300">
      <path
         sodipodi:type="arc"
         style="fill:none;stroke:#e6e6f1;stroke-width:16.10000038;stroke-linecap:round;stroke-linejoin:round;stroke-miterlimit:4;stroke-opacity:1;stroke-dasharray:none;stroke-dashoffset:0"
         id="path5196"
         sodipodi:cx="200.04926"
         sodipodi:cy="416.58221"
         sodipodi:rx="154.23645"
         sodipodi:ry="154.23645"
         d="M 52.226802,372.56625 C 76.536147,290.92617 162.42513,244.45042 244.06522,268.75976 325.7053,293.06911 372.18105,378.95809 347.87171,460.59818 323.56236,542.23826 237.67338,588.71401 156.03329,564.40467 115.27677,552.26891 81.339125,523.84432 62.241409,485.84895"
         sodipodi:start="3.4309953"
         sodipodi:end="8.9590264"
         sodipodi:open="true"
         transform="translate(327.7426,55.46216)" />
      <path
         transform="translate(25.7426,55.46216)"
         sodipodi:open="true"
         sodipodi:end="5.537658"
         sodipodi:start="3.890559"
         d="m 87.08755,311.56538 c 57.9992,-62.38703 155.59151,-65.94407 217.97854,-7.94487 2.87344,2.67135 5.64391,5.45136 8.30536,8.33397"
         sodipodi:ry="154.23645"
         sodipodi:rx="154.23645"
         sodipodi:cy="416.58221"
         sodipodi:cx="200.04926"
         id="path3058"
         style="fill:none;stroke:#e6e6f1;stroke-width:16.10000038;stroke-linecap:round;stroke-linejoin:round;stroke-miterlimit:4;stroke-opacity:1;stroke-dasharray:none;stroke-dashoffset:0"
         sodipodi:type="arc" />
      <path
         sodipodi:type="arc"
         style="fill:none;stroke:#e6e6f1;stroke-width:16.10000038;stroke-linecap:round;stroke-linejoin:round;stroke-miterlimit:4;stroke-opacity:1;stroke-dasharray:none;stroke-dashoffset:0"
         id="path3924"
         sodipodi:cx="200.04926"
         sodipodi:cy="416.58221"
         sodipodi:rx="154.23645"
         sodipodi:ry="154.23645"
         d="M 109.61345,541.52319 C 64.145937,508.61252 40.14622,453.5999 46.950237,397.88534"
         sodipodi:start="2.197336"
         sodipodi:end="3.2631137"
         sodipodi:open="true"
         transform="translate(25.7426,55.46216)" />
      <path
         transform="translate(25.7426,55.46216)"
         sodipodi:open="true"
         sodipodi:end="1.914559"
         sodipodi:start="1.2408307"
         d="m 250.02349,562.49815 c -33.08267,11.33036 -69.03365,11.08235 -101.95685,-0.70337"
         sodipodi:ry="154.23645"
         sodipodi:rx="154.23645"
         sodipodi:cy="416.58221"
         sodipodi:cx="200.04926"
         id="path3926"
         style="fill:none;stroke:#e6e6f1;stroke-width:16.10000038;stroke-linecap:round;stroke-linejoin:round;stroke-miterlimit:4;stroke-opacity:1;stroke-dasharray:none;stroke-dashoffset:0"
         sodipodi:type="arc" />
      <path
         sodipodi:type="arc"
         style="fill:none;stroke:#e6e6f1;stroke-width:16.10000038;stroke-linecap:round;stroke-linejoin:round;stroke-miterlimit:4;stroke-opacity:1;stroke-dasharray:none;stroke-dashoffset:0"
         id="path3928"
         sodipodi:cx="200.04926"
         sodipodi:cy="416.58221"
         sodipodi:rx="154.23645"
         sodipodi:ry="154.23645"
         d="M 352.88179,395.81932 C 360.47263,451.69435 336.9667,507.25821 291.5816,540.7221"
         sodipodi:start="6.1481581"
         sodipodi:end="7.2186373"
         sodipodi:open="true"
         transform="translate(25.7426,55.46216)" />
      <path
         style="fill:#f7821c;fill-opacity:1"
         d="m 136.52202,622.7729 c -3.8338,-2.23298 -1.46735,-7.52735 10.23693,-22.90273 10.43734,-13.71106 11.95417,-17.31317 7.73625,-18.3718 -3.85206,-0.96681 -10.41354,-7.383 -13.13491,-12.84408 -6.87371,-13.79373 -1.10113,-24.04191 19.91173,-35.34973 9.21695,-4.96 11.72263,-7.4073 17.0624,-16.66489 5.52117,-9.57208 16.12076,-20.27316 24.50977,-24.74445 3.42671,-1.82642 7.90434,-4.83309 9.9503,-6.68149 2.04596,-1.8484 3.93879,-3.36073 4.20627,-3.36073 0.7623,0 2.17506,11.85023 2.22557,18.66809 0.0362,4.88531 -0.42474,6.80399 -2.21632,9.22575 -1.24411,1.68172 -2.78625,5.32878 -3.42698,8.10458 -0.7504,3.25088 -1.4524,4.594 -1.97268,3.77424 -1.36646,-2.15306 -0.92585,-9.97662 0.8192,-14.54598 1.54975,-4.05795 1.54739,-4.4503 -0.0362,-6.03343 -1.46497,-1.46458 -1.81626,-1.495 -2.60129,-0.22524 -1.31869,2.13296 -2.35682,13.42346 -1.60348,17.43912 1.03921,5.53948 -1.20375,16.49207 -5.03634,24.59287 -2.67568,5.65551 -3.68806,9.30853 -4.11648,14.85375 -0.64914,8.40197 -1.92187,7.71087 -2.89195,-1.57034 -0.45345,-4.3384 -0.0606,-7.99978 1.50745,-14.049 3.29058,-12.69457 2.49464,-18.75685 -1.38832,-10.57411 -3.10588,6.54514 -3.95051,17.12886 -2.56823,32.18129 1.41189,15.37491 0.74382,20.61623 -3.5673,27.98692 -2.92435,4.99972 -4.39276,5.01214 -1.70525,0.0144 2.20108,-4.09312 2.43056,-15.98615 0.62911,-32.60275 -2.03241,-18.74693 0.35682,-30.86824 8.58786,-43.56893 6.10731,-9.42363 10.01146,-20.67123 7.17523,-20.67123 -2.10861,0 -12.32106,11.8217 -15.09782,17.47689 -5.99205,12.20352 -7.19484,25.77657 -4.34066,48.98278 2.262,18.3915 1.63236,26.64223 -2.685,35.18374 -3.75127,7.42155 -6.3526,9.83417 -7.93201,7.35659 -1.58671,-2.48903 -1.10179,-6.22917 1.49102,-11.5 4.25552,-8.65089 2.48306,-12.80757 -2.78942,-6.54159 -1.61955,1.92472 -2.72784,4.80731 -3.17195,8.25 -1.4467,11.21466 -4.94697,17.79159 -9.46875,17.79159 -2.85648,0 -2.70543,-4.20705 0.45225,-12.59623 2.69876,-7.16996 3.05806,-9.40377 1.51254,-9.40377 -1.56529,0 -5.23361,6.58783 -10.46387,18.79173 -6.00141,14.00327 -9.95024,17.53457 -15.79867,14.12817 z m 34.72151,-47.30928 c 4.47126,-2.92968 7.80183,-8.39995 8.30545,-13.6412 1.12573,-11.71572 -8.24169,-19.4003 -17.69178,-14.51347 -5.09449,2.63446 -7.79871,12.4201 -4.93548,17.85979 1.477,2.80606 2.78979,3.64999 5.70729,3.66895 1.87318,0.0122 2.19917,-0.3439 1.58816,-1.73469 -0.42286,-0.9625 -0.96407,-3.39351 -1.2027,-5.40223 -0.35984,-3.02907 -0.079,-3.76486 1.64574,-4.31228 2.9748,-0.94417 7.4014,1.50315 8.53159,4.71683 1.48259,4.21574 -0.28953,7.93455 -4.84133,10.15952 -3.55178,1.73616 -4.28347,1.78211 -7.96223,0.5 -6.19846,-2.16025 -8.88992,-6.81183 -8.41408,-14.5418 0.29479,-4.78869 0.98168,-6.92227 3.1393,-9.75105 5.34111,-7.00255 11.4382,-8.28456 19.63832,-4.12925 l 4.91327,2.48975 -1.92455,-4.23975 c -2.56844,-5.6582 -2.46719,-7.34845 0.88968,-14.85142 1.57199,-3.51358 3.14276,-7.96332 3.4906,-9.88832 0.54175,-2.99808 0.13115,-2.57316 -2.86319,2.96299 -4.91593,9.08895 -9.33431,13.17436 -20.72434,19.16254 -11.92776,6.27089 -14.76123,9.62035 -14.76123,17.44932 0,5.83826 3.09343,12.65915 7.09675,15.64806 6.2992,4.70304 15.24173,5.75101 20.37476,2.38771 z m 132.26597,45.63726 c -1.45019,-1.51367 -4.93543,-8.20971 -7.74499,-14.88008 -4.944,-11.73793 -9.99249,-19.23135 -9.99249,-14.83176 0,1.03657 1.20876,5.29721 2.68613,9.46809 2.80447,7.91752 2.66456,10.99587 -0.49976,10.99587 -3.90179,0 -7.51102,-6.57279 -9.04302,-16.4683 -1.1007,-7.10962 -3.55547,-11.77606 -6.49933,-12.35502 -2.28245,-0.44889 -2.16504,3.87365 0.23394,8.61316 2.84248,5.61568 3.40678,9.4385 1.73145,11.72962 -1.43206,1.95842 -1.47614,1.95432 -3.948,-0.36785 -3.18841,-2.99532 -6.50454,-10.69365 -7.81772,-18.14869 -0.79781,-4.52928 -0.63702,-8.78554 0.72394,-19.16273 0.96225,-7.3371 1.73662,-18.51519 1.72081,-24.84019 -0.0473,-18.93638 -3.94792,-29.73832 -14.57516,-40.36295 -5.89719,-5.89575 -6.15184,-6.03541 -6.47641,-3.55216 -0.42099,3.22096 2.93987,11.90522 6.84904,17.69751 9.72509,14.40985 11.80928,27.65008 8.38717,53.28118 -1.64515,12.32193 -1.30208,17.2226 1.6353,23.35998 2.3077,4.82172 1.82497,5.69595 -0.97438,1.76462 -4.32391,-6.07237 -4.56162,-7.76207 -4.59849,-32.68818 -0.0325,-21.97706 -0.20409,-24.33257 -2.03551,-27.94554 -2.20602,-4.35196 -4.5,-5.78961 -4.5,-2.82016 0,1.04552 0.88941,5.24552 1.97646,9.33333 1.98691,7.47162 2.51209,19.12623 1.07845,23.93237 -0.5743,1.92527 -0.91847,0.89076 -1.49709,-4.5 -0.41324,-3.85 -1.87654,-9.475 -3.25177,-12.5 -5.12357,-11.26994 -5.54208,-13.21325 -6.18112,-28.70114 -0.42699,-10.34874 -1.03915,-15.61308 -1.91771,-16.49164 -1.054,-1.054 -1.47138,-1.01714 -2.27752,0.20114 -1.12407,1.69876 -0.73197,5.10113 1.09955,9.54124 1.32439,3.2107 0.54808,12.92524 -0.95849,11.99413 -0.44048,-0.27223 -1.05305,-2.37502 -1.36125,-4.67286 -0.30821,-2.29783 -1.55673,-5.52552 -2.77449,-7.17263 -1.21776,-1.64711 -2.44072,-5.00518 -2.71768,-7.46238 -0.52598,-4.66649 1.62495,-21.23586 2.75671,-21.23586 0.35847,0 1.97346,1.38204 3.58886,3.0712 1.6154,1.68916 5.63709,4.49972 8.93709,6.24567 8.14826,4.31106 21.17853,17.3454 25.94579,25.95387 4.88761,8.82582 7.51323,11.32587 17.57847,16.73779 9.62269,5.17397 17.97664,12.36626 20.47233,17.62552 2.04818,4.31622 1.69214,11.07383 -0.86713,16.45797 -2.15061,4.52441 -8.83403,11.33586 -12.68995,12.93304 -1.96735,0.8149 -2.93951,1.93067 -2.93951,3.37375 0,2.40423 0.52559,3.24468 10.20396,16.31699 10.94557,14.78386 12.93962,18.99776 10.25856,21.67883 -2.48138,2.48137 -6.72893,1.98051 -9.72504,-1.14675 z m -7.22673,-46.72815 c 6.93081,-4.01535 10.99586,-14.42462 8.5396,-21.86717 -1.53786,-4.65977 -6.17616,-8.61156 -15.20427,-12.95391 -8.70921,-4.18896 -15.81168,-10.82 -19.93767,-18.61428 -2.66307,-5.03073 -2.89296,-5.23738 -2.31885,-2.08437 0.3505,1.925 1.75625,5.88854 3.12386,8.80787 3.02817,6.46395 3.15132,11.06133 0.42031,15.69006 -1.13646,1.92614 -1.8415,3.50207 -1.56676,3.50207 0.27473,0 2.81518,-1.17344 5.64544,-2.60764 8.6543,-4.38546 16.49445,-1.76081 20.70176,6.93034 5.4414,11.24043 -1.39795,23.95126 -11.91417,22.14232 -9.2292,-1.58755 -11.47604,-12.43253 -3.22562,-15.56934 3.01701,-1.14707 6.22562,0.49659 6.22562,3.18916 0,1.10797 -0.68656,3.34213 -1.52568,4.96482 -1.5184,2.93627 -1.51199,2.95034 1.34501,2.95034 7.96413,0 9.41926,-14.25567 2.08506,-20.427 -8.76743,-7.3773 -21.66248,2.53864 -19.34764,14.87781 0.77788,4.14648 6.67729,11.29161 10.87954,13.17688 4.01182,1.79983 10.88507,0.89849 16.07446,-2.10796 z M 223.76017,561.303 c -0.007,-1.0725 -0.67968,-9.15 -1.49592,-17.95 -1.74835,-18.84925 -1.89682,-32.15167 -0.44214,-39.61351 0.76329,-3.91529 0.72274,-7.44987 -0.14845,-12.94114 -1.39306,-8.78071 -0.45793,-13.26633 2.86801,-13.75721 3.47082,-0.51227 4.72785,5.59421 2.93298,14.24803 -1.0949,5.27902 -1.17963,7.78763 -0.35463,10.5 2.23653,7.35312 0.2035,57.74167 -2.44156,60.51383 -0.55691,0.58368 -0.91101,0.19807 -0.91829,-1 z m -90.369,-26.7 c -2.34547,-3.6983 -2.9302,-10.0698 -1.28539,-14.00638 1.98822,-4.75849 8.26099,-8.86263 22.64279,-14.81471 6.55026,-2.7109 12.19357,-4.92891 12.5407,-4.92891 0.34712,0 -4.41251,5.3693 -10.57696,11.93178 -6.16445,6.56248 -13.23229,14.66248 -15.70632,18 -2.47402,3.33752 -4.87839,6.06822 -5.34305,6.06822 -0.46465,0 -1.48694,-1.0125 -2.27177,-2.25 z m 175.34791,-2.96365 c -1.87929,-2.90749 -9.00572,-11.02385 -15.83651,-18.03635 -6.83079,-7.0125 -11.99202,-12.75 -11.46941,-12.75 1.45061,0 18.01822,6.80935 24.37469,10.01809 3.1006,1.56518 7.06097,4.46707 8.80081,6.44864 2.693,3.06716 3.16117,4.37831 3.14862,8.81807 -0.0162,5.72431 -1.68726,10.03413 -4.06841,10.4927 -0.929,0.1789 -2.87904,-1.78742 -4.94979,-4.99115 z M 102.45509,512.4231 c -9.409075,-2.5294 -16.683065,-12.55146 -16.683065,-22.98582 0,-5.20492 0.32896,-6.11324 3.28433,-9.06861 2.43521,-2.43521 4.82667,-3.60524 9.249995,-4.5256 6.10563,-1.2704 20.14037,-0.7858 24.55669,0.8479 2.1971,0.81276 2.16815,0.87603 -0.88846,1.94157 -4.30864,1.502 -7.19415,6.52044 -7.19882,12.52012 -0.006,8.00189 3.30176,12.49122 11.49629,15.60181 l 4.72212,1.79248 -3.91325,1.56577 c -4.19973,1.6804 -14.35855,3.78332 -17.74256,3.67279 -1.13649,-0.0371 -4.23396,-0.65021 -6.88327,-1.36241 z m 230.31693,0.79664 c -3.72705,-0.70976 -12.39138,-3.51453 -13.24935,-4.28901 -0.41214,-0.37203 0.93786,-1.27781 3,-2.01283 5.48965,-1.9567 8.79224,-4.58183 10.62606,-8.44634 3.47394,-7.32077 1.0558,-16.31542 -5.26233,-19.57412 l -3.61438,-1.86419 3,-0.80587 c 1.65,-0.44323 7.95,-0.81827 14,-0.83342 13.29043,-0.0333 18.58707,2.02984 21.18713,8.25267 3.74349,8.95942 -2.01952,22.27432 -11.80062,27.26427 -3.88828,1.98365 -13.24907,3.19197 -17.88651,2.30884 z m -204.3807,-7.35241 c -6.37931,-2.01802 -10.41529,-8.9578 -9.14562,-15.72571 1.00193,-5.34074 3.18844,-7.99417 8.14833,-9.88837 3.85316,-1.47153 6.1205,-1.58058 16.66889,-0.80173 6.715,0.49582 25.44084,0.79474 41.61298,0.66427 16.17213,-0.13047 29.22213,-0.0696 29,0.13535 -0.22214,0.20491 -3.8425,1.79581 -8.04527,3.53532 -4.20276,1.73951 -10.50276,5.16125 -14,7.60386 -7.60717,5.31315 -12.53471,5.91212 -17.29602,2.10241 l -2.93741,-2.35033 5.13788,-1.23256 c 2.82584,-0.67791 5.63173,-1.82761 6.23532,-2.55489 1.37077,-1.65167 -9.07224,-2.85739 -25.49838,-2.94397 -9.2898,-0.049 -11.62189,0.26708 -15,2.0328 -4.56254,2.38481 -5.99544,6.56839 -2.80993,8.20404 4.30584,2.21091 17.968,2.03156 23.80993,-0.31256 1.74013,-0.69824 1.67781,-0.44922 -0.4796,1.91646 -1.36378,1.49544 -5.84028,4.37999 -9.94777,6.41013 -6.3733,3.15 -8.57538,3.72235 -15.02041,3.90395 -4.15372,0.11705 -8.84853,-0.19726 -10.43292,-0.69847 z m 170.3807,-1.50718 c -9.73295,-4.59446 -19.94368,-12.40726 -12.25,-9.37315 1.5125,0.59648 6.46919,1.08271 11.01487,1.08052 12.68984,-0.006 16.81559,-3.88503 9.42774,-8.8637 -5.43555,-3.66302 -13.64995,-4.04327 -36.44261,-1.68693 -3.1625,0.32694 -5.75,0.93172 -5.75,1.34396 0,0.84784 4.02548,2.50278 8.5,3.49448 l 3,0.6649 -2.80576,2.41638 c -4.04257,3.48155 -9.24734,3.24715 -14.64007,-0.65933 -4.87861,-3.53405 -15.81243,-9.11645 -21.30417,-10.87712 -2.0625,-0.66125 -3.75,-1.39201 -3.75,-1.62391 0,-0.23191 13.1625,-0.30951 29.25,-0.17245 16.0875,0.13706 34.89676,-0.15315 41.79835,-0.6449 14.41984,-1.02745 18.41701,-0.21843 22.41892,4.53758 1.97407,2.34605 2.53273,4.11703 2.53273,8.02895 0,9.88413 -4.94602,14.00737 -17.47803,14.57052 -7.00143,0.31463 -8.72167,0.0302 -13.52197,-2.2358 z M 145.85151,492.93166 c -4.79999,-0.81203 -4.97344,-2.79528 -0.41757,-4.77447 2.74895,-1.19422 7.7399,-1.78992 17.58808,-2.09926 15.20019,-0.47744 19.21673,1.07707 5.51329,2.13381 -5.64382,0.43521 -9.0279,1.21632 -10.75001,2.4813 -3.03298,2.22787 -7.31972,3.03919 -11.93379,2.25862 z m 150.92051,-3.5e-4 c -1.375,-0.31807 -3.62858,-1.3462 -5.00795,-2.28473 -1.56531,-1.06503 -5.61767,-1.96575 -10.78147,-2.3964 -4.55043,-0.37949 -8.51091,-1.0741 -8.80106,-1.54358 -0.74466,-1.20488 21.15974,-1.01805 26.59048,0.2268 5.21431,1.19524 9.5988,3.75685 8.3569,4.88246 -1.23869,1.12271 -7.43884,1.79047 -10.3569,1.11545 z M 174.98638,477.80054 c -4.14434,-1.29061 -3.25487,-2.94291 1.59466,-2.96228 3.98694,-0.0159 8.30052,-1.77974 8.91542,-3.64549 0.46946,-1.42446 -16.44057,-11.53017 -26.90508,-16.07892 -4.22435,-1.83626 -9.92409,-3.60435 -12.6661,-3.9291 -4.44127,-0.52601 -5.26751,-0.30841 -7.56936,1.99344 -7.40605,7.40605 1.2409,16.37489 20.59366,21.36028 3.75234,0.96663 6.82244,2.12334 6.82244,2.57046 0,1.80703 -23.53393,-2.58562 -33.07935,-6.17432 -7.37173,-2.77148 -13.20253,-7.91448 -16.41343,-14.47732 -3.67921,-7.52003 -3.71662,-18.54248 -0.0677,-19.94271 3.61903,-1.38875 31.15575,8.68345 49.29781,18.03184 10.4994,5.41021 21.5728,10.1421 41.6527,17.79904 7.68446,2.93027 9.51878,3.97907 8.22531,4.70293 -2.42016,1.35439 -36.43368,1.98762 -40.40098,0.75215 z m 65.28564,0.34266 c -2.75,-0.19211 -5.675,-0.5957 -6.5,-0.89686 -2.0961,-0.76516 0.55525,-2.03947 18.5,-8.8916 8.25,-3.15023 20.66871,-8.57224 27.59712,-12.04891 24.25543,-12.17132 49.31668,-21.37211 52.93668,-19.43474 5.84065,3.12582 2.82887,18.96539 -5.11697,26.91124 -6.13787,6.13787 -18.58885,10.59983 -36.32198,13.01642 -7.10547,0.9683 -11.12614,0.79244 -7.48798,-0.32753 0.76622,-0.23587 5.21813,-1.57815 9.89313,-2.98284 15.65231,-4.70302 21.73172,-10.55503 18.64351,-17.94614 -1.93754,-4.63721 -6.07956,-5.56618 -14.30919,-3.20928 -8.58002,2.45726 -34.33432,16.26677 -34.33432,18.41014 0,1.7104 2.968,3.27144 7.48075,3.93456 4.95821,0.72858 6.04379,2.27921 2.32827,3.32566 -2.37509,0.66893 -24.41144,0.76147 -33.30902,0.13988 z m -18.9157,-3.9311 c -0.67828,-1.76758 1.82011,-6.3591 3.46019,-6.3591 1.44925,0 3.32182,4.60302 2.61835,6.43623 -0.79343,2.06765 -5.27734,2.01075 -6.07854,-0.0771 z m -10.5843,-3.94055 c -4.125,-2.46453 -9.975,-5.18693 -13,-6.04977 -9.30013,-2.65272 -19.44617,-8.01335 -23.35426,-12.33914 -2.00516,-2.21947 -3.64574,-4.47559 -3.64574,-5.0136 0,-0.53801 2.84987,0.58829 6.33305,2.50288 6.70446,3.68524 10.66695,4.44044 10.66695,2.033 0,-4.4271 -22.18499,-25.10684 -45.37624,-42.29747 -13.12885,-9.73183 -16.78473,-11.32026 -19.79961,-8.6027 -2.93337,2.64411 -2.10516,12.48665 1.5798,18.77456 3.47584,5.93108 6.82096,8.27675 20.59605,14.44239 20.24032,9.05945 23.35787,12.10145 9.25,9.02585 -18.3232,-3.99458 -28.49057,-8.82844 -37.79955,-17.97102 -9.48339,-9.31387 -16.37435,-24.04097 -16.42463,-35.1021 -0.0284,-6.25432 1.53843,-8.82143 5.38426,-8.82143 4.55444,0 21.95536,9.60127 31.57045,17.41956 22.68152,18.44297 85.41742,77.11846 81.82617,76.5302 -0.16868,-0.0276 -3.6817,-2.06667 -7.8067,-4.53121 z m 20,3.74349 c 0,-0.91751 24.61539,-24.78283 44.5,-43.144 13.62578,-12.58186 35.46897,-31.58272 42.09859,-36.62057 7.17621,-5.45318 22.99335,-13.39747 26.67447,-13.39747 4.25697,0 6.13639,3.80851 5.39234,10.92721 -1.82302,17.4417 -14.61179,35.36101 -31.0244,43.47064 -9.20955,4.55053 -32.641,10.73923 -32.641,8.62112 0,-0.87153 18.30747,-10.3438 27.74181,-14.35359 8.77814,-3.73088 14.59353,-12.43437 14.69582,-21.9942 0.0688,-6.43344 -1.95314,-9.21524 -5.88517,-8.0967 -6.67361,1.89845 -35.57777,24.30223 -50.12433,38.85166 -14.10624,14.10902 -14.5686,18.20715 -1.29842,11.50838 3.33997,-1.68601 6.28809,-2.85005 6.55138,-2.58676 1.04021,1.04021 -3.0775,5.67846 -7.99527,9.006 -2.8522,1.9299 -9.09032,4.86551 -13.86249,6.52357 -9.12747,3.17129 -17.46785,7.07031 -22.07333,10.31901 -1.5125,1.06692 -2.75,1.50148 -2.75,0.9657 z m -58.5,-5.7939 c -3.30481,-0.9604 -7.28557,-1.26703 -11.74134,-0.90441 -3.70773,0.30174 -8.87293,0.0709 -11.47821,-0.51293 -12.57778,-2.81874 -15.61418,-12.9508 -3.88114,-12.9508 4.83297,0 11.25498,2.25886 23.32935,8.20578 14.42032,7.10237 16.02421,9.72311 3.77134,6.16236 z m 98,-0.42831 c 9.82371,-6.70302 27.63743,-13.93983 34.31347,-13.93983 8.5882,0 9.18662,6.8515 0.97653,11.18063 -3.70556,1.95392 -5.63981,2.23927 -14.198,2.09459 -5.96445,-0.10083 -12.11783,0.40809 -15.4601,1.27864 -7.67078,1.99799 -9.21348,1.82979 -5.6319,-0.61403 z m -161.52823,-5.25142 c -13.587355,-5.93285 -22.905205,-14.05277 -27.533675,-23.99383 -3.13501,-6.73339 -3.28902,-14.34308 -0.36551,-18.05972 3.28161,-4.17189 7.49656,-3.56063 19.322295,2.80218 14.48536,7.79381 14.01522,7.33721 12.15034,11.80049 -3.04876,7.29671 -1.72646,16.93145 3.44229,25.08172 1.65687,2.61261 3.01249,4.95958 3.01249,5.21548 0,1.08158 -2.95053,0.24413 -10.02823,-2.84632 z m 223.94045,-1.21105 c 6.22114,-9.80972 7.57058,-19.77548 3.69307,-27.27375 l -1.50167,-2.90392 8.19819,-4.55078 c 12.77807,-7.09305 16.41651,-8.74891 19.22409,-8.74891 12.6352,0 10.14018,21.19551 -3.95949,33.63651 -4.98119,4.3952 -20.36855,12.70028 -25.87198,13.96398 l -2.80557,0.64422 3.02336,-4.76735 z m -114.8136,-4.58246 c -5.8765,-19.79379 -25.52738,-72.7452 -31.67638,-85.3554 -3.93818,-8.07631 -8.37061,-12.45809 -6.97689,-6.89716 0.39391,1.57171 2.30347,5.47155 4.24345,8.6663 1.93999,3.19475 3.28407,6.05182 2.98685,6.34905 -0.88307,0.88307 -10.51731,-12.79512 -12.35146,-17.53595 -1.60759,-4.15525 -1.6031,-4.44463 0.0882,-5.68131 0.98012,-0.71669 2.41331,-1.06083 3.18484,-0.76476 2.1879,0.83958 1.65556,-1.22185 -1.18835,-4.60163 -3.11405,-3.70085 -4.3811,-3.21129 -4.49041,1.73498 l -0.0816,3.69098 -1.49577,-3.43253 c -1.77534,-4.07407 -0.52106,-8.06747 2.53389,-8.06747 4.99077,0 11.40788,11.85661 21.57604,39.86505 9.45536,26.04502 25.63549,74.37546 25.2683,75.47703 -0.17375,0.52124 -0.90306,-1.02999 -1.62069,-3.44718 z m 10.98033,3.45243 c -0.11179,-1.63209 18.85739,-57.428 26.63142,-78.33367 11.62637,-31.2652 18.33842,-41.47951 23.31597,-35.48193 1.03038,1.24153 1.01348,2.33092 -0.0892,5.75 -1.33217,4.13075 -1.36727,4.15602 -1.69177,1.21827 -0.56962,-5.15678 -1.04814,-5.90859 -2.82316,-4.43546 -2.28711,1.89814 -4.82031,7.02545 -3.15533,6.38653 0.70977,-0.27236 2.14825,0.13201 3.19663,0.89861 1.83125,1.33903 1.83959,1.56585 0.21228,5.77206 -1.82679,4.72181 -11.46683,18.42057 -12.34493,17.54247 -0.29363,-0.29363 1.06362,-3.1507 3.01611,-6.34904 4.07995,-6.68331 5.68456,-11.64824 3.49274,-10.80716 -4.28421,1.64401 -14.54316,26.20209 -31.32732,74.99199 -8.63967,25.11469 -8.33473,24.28857 -8.43344,22.84733 z m -58.15944,-20.43309 c -11.48077,-8.62938 -12.4394,-9.13906 -22.19608,-11.801 -11.20475,-3.05702 -18.2079,-7.96522 -20.68228,-14.49532 -1.66667,-4.39846 -0.51311,-6.61792 3.43964,-6.61792 2.52011,0 5.32392,1.46653 11.35911,5.94135 11.8649,8.79728 38.8053,32.74678 37.87868,33.67341 -0.20875,0.20875 -4.61833,-2.80649 -9.79907,-6.70052 z m 97.08049,6.71466 c 0,-1.62722 40.21597,-35.65498 45.16184,-38.21259 11.7312,-6.06644 11.22261,8.1718 -0.53809,15.06403 -2.43156,1.425 -7.67137,3.49161 -11.644,4.59249 -9.26298,2.5669 -11.44148,3.73332 -22.50733,12.05094 -8.31196,6.24766 -10.47242,7.58967 -10.47242,6.50513 z M 106.21786,422.17943 c -10.215595,-6.78784 -24.349015,-21.41495 -28.249365,-29.23615 -6.92372,-13.88381 -2.36309,-20.13287 12.45132,-17.06103 3.21872,0.66742 6.88165,1.60417 8.139865,2.08168 l 2.28764,0.8682 -2.18345,2.95328 c -1.820785,2.46275 -2.092305,3.83477 -1.634685,8.26043 0.73872,7.14423 4.862895,17.10039 11.390395,27.49749 2.96878,4.72871 5.2507,8.74474 5.07095,8.92449 -0.17976,0.17976 -3.45246,-1.75001 -7.27267,-4.28839 z M 339.3988,419.7631 c 5.97791,-9.24091 10.87333,-19.99694 12.31961,-27.0682 1.13411,-5.54495 0.73675,-7.60689 -2.70007,-14.01114 -0.64293,-1.19804 14.78658,-4.08683 18.58285,-3.47917 4.29771,0.68792 7.17083,3.74295 7.17083,7.62484 0,5.58269 -6.94723,17.09456 -15.43821,25.58181 -7.28165,7.27844 -21.62699,18.44176 -23.69845,18.44176 -0.45265,0 1.2409,-3.19045 3.76344,-7.0899 z"
         id="path5088"
         inkscape:connector-curvature="0" />
      <path
         style="fill:#000000"
         d=""
         id="path5086"
         inkscape:connector-curvature="0" />
      <path
         style="fill:#000000"
         d=""
         id="path5084"
         inkscape:connector-curvature="0" />
    </g>
    <g
       style="font-size:77.17957306px;font-style:normal;font-variant:normal;font-weight:normal;font-stretch:normal;line-height:125%;letter-spacing:0px;word-spacing:0px;fill:#66ff00;fill-opacity:1;stroke:none;font-family:Hiragino Maru Gothic Pro;-inkscape-font-specification:Hiragino Maru Gothic Pro"
       id="text4281"
       transform="translate(-60.480585,14.048059)">
      <path
         d="m 114.91773,528.28118 -6.63744,0 c -1.92949,0 -2.77846,1.38924 -2.77846,3.16437 0,1.8523 0.92615,3.01 2.77846,3.01 l 6.63744,0 0,34.26773 c 0,2.08385 1.38924,3.08718 3.47309,3.08718 2.00666,0 3.55026,-1.00333 3.55026,-3.08718 l 0,-34.26773 9.26154,0 c 1.92949,0 2.93283,-1.1577 2.93283,-3.01 0,-1.85231 -0.92616,-3.16437 -2.93283,-3.16437 l -9.26154,0 0,-4.70795 c 0,-5.6341 2.16103,-7.1777 5.01667,-7.1777 1.62077,0 2.93282,0.23154 4.24487,0.7718 0.46308,0.15435 0.92616,0.23153 1.31206,0.23153 1.38923,0 2.46974,-1.00333 2.93282,-2.31538 0.23154,-0.46308 0.30872,-0.92616 0.30872,-1.46641 0,-1.1577 -0.61744,-2.31539 -2.08385,-2.77847 -2.2382,-0.77179 -4.1677,-0.92615 -6.71462,-0.92615 -5.86564,0 -12.04002,2.77847 -12.04002,12.8118 l 0,5.55693"
         id="path5091"
         inkscape:connector-curvature="0"
         style="fill:#66ff00;fill-opacity:1" />
      <path
         d="m 141.87994,568.72328 c 0,2.08385 1.46641,3.08718 3.62744,3.08718 1.92948,0 3.47308,-1.00333 3.47308,-3.08718 l 0,-21.45592 c 0.0772,-3.24154 1.23487,-6.17437 3.31872,-8.64411 1.92949,-2.46975 4.47642,-4.1677 7.79514,-4.24488 1.62076,0 2.6241,0.23154 3.78179,0.46308 0.23154,0.0772 0.46308,0.0772 0.69462,0.0772 1.62077,0 2.70129,-1.38924 3.01,-3.08719 0.0772,-0.46307 0.15436,-0.92615 0.15436,-1.31205 0,-1.46641 -0.69461,-2.54692 -2.46974,-2.77846 -1.08052,-0.23154 -1.92949,-0.3859 -3.16437,-0.3859 -0.54025,0 -1.08051,0 -1.69795,0.0772 -6.63743,0.23154 -10.65078,5.09385 -11.88565,8.79847 0.15436,-1.23487 0.46308,-2.54693 0.46308,-3.62744 l 0,-1.77513 c 0,-2.00667 -1.5436,-3.01 -3.47308,-3.01 -2.16103,0 -3.62744,1.00333 -3.62744,3.01 l 0,37.89517"
         id="path5093"
         inkscape:connector-curvature="0"
         style="fill:#66ff00;fill-opacity:1" />
      <path
         d="m 206.59863,551.12634 c 2.46974,0 3.93616,-1.46642 3.93616,-4.24488 0,-0.23154 0,-0.3859 0,-0.61744 -0.7718,-10.18769 -7.17771,-19.06335 -18.5231,-19.06335 -12.65744,0 -19.68079,9.41592 -19.68079,22.84515 0,13.42924 7.40925,22.45926 20.14387,22.45926 10.11051,0 14.58694,-5.09386 17.13386,-10.26488 0.30872,-0.46308 0.3859,-0.92616 0.3859,-1.38924 0,-1.38923 -1.08051,-2.31538 -2.39257,-2.70128 -0.61743,-0.15436 -1.15769,-0.30872 -1.69795,-0.30872 -1.08051,0 -2.08385,0.54026 -2.77846,1.92949 -1.85231,4.09051 -4.9395,6.94616 -10.5736,6.94616 -8.41257,0 -13.12053,-6.02001 -13.27489,-15.59027 l 27.32157,0 m -27.09003,-5.63411 c 1.00333,-7.64077 5.01668,-12.58027 12.50309,-12.58027 7.17769,0 10.49642,5.63411 11.42258,11.19104 0,0.15436 0,0.30871 0,0.38589 0,0.69462 -0.30872,1.00334 -1.1577,1.00334 l -22.76797,0"
         id="path5095"
         inkscape:connector-curvature="0"
         style="fill:#66ff00;fill-opacity:1" />
      <path
         d="m 251.21807,551.12634 c 2.46974,0 3.93616,-1.46642 3.93616,-4.24488 0,-0.23154 0,-0.3859 0,-0.61744 -0.7718,-10.18769 -7.17772,-19.06335 -18.5231,-19.06335 -12.65744,0 -19.68079,9.41592 -19.68079,22.84515 0,13.42924 7.40925,22.45926 20.14387,22.45926 10.11051,0 14.58694,-5.09386 17.13386,-10.26488 0.30872,-0.46308 0.3859,-0.92616 0.3859,-1.38924 0,-1.38923 -1.08052,-2.31538 -2.39257,-2.70128 -0.61743,-0.15436 -1.15769,-0.30872 -1.69795,-0.30872 -1.08051,0 -2.08385,0.54026 -2.77846,1.92949 -1.85231,4.09051 -4.9395,6.94616 -10.5736,6.94616 -8.41257,0 -13.12053,-6.02001 -13.27489,-15.59027 l 27.32157,0 m -27.09003,-5.63411 c 1.00333,-7.64077 5.01668,-12.58027 12.50309,-12.58027 7.17769,0 10.49642,5.63411 11.42258,11.19104 0,0.15436 0,0.30871 0,0.38589 0,0.69462 -0.30872,1.00334 -1.1577,1.00334 l -22.76797,0"
         id="path5097"
         inkscape:connector-curvature="0"
         style="fill:#66ff00;fill-opacity:1" />
      <path
         d="m 290.66166,568.72328 c 0,2.08385 1.46641,3.08718 3.62744,3.08718 1.92949,0 3.47308,-1.00333 3.47308,-3.08718 l 0,-21.45592 c 0.0772,-3.24154 1.23487,-6.17437 3.31872,-8.64411 1.92949,-2.46975 4.47642,-4.1677 7.79514,-4.24488 1.62077,0 2.6241,0.23154 3.7818,0.46308 0.23154,0.0772 0.46307,0.0772 0.69461,0.0772 1.62077,0 2.70129,-1.38924 3.01001,-3.08719 0.0772,-0.46307 0.15436,-0.92615 0.15436,-1.31205 0,-1.46641 -0.69462,-2.54692 -2.46975,-2.77846 -1.08051,-0.23154 -1.92949,-0.3859 -3.16436,-0.3859 -0.54026,0 -1.08052,0 -1.69795,0.0772 -6.63744,0.23154 -10.65079,5.09385 -11.88566,8.79847 0.15436,-1.23487 0.46308,-2.54693 0.46308,-3.62744 l 0,-1.77513 c 0,-2.00667 -1.54359,-3.01 -3.47308,-3.01 -2.16103,0 -3.62744,1.00333 -3.62744,3.01 l 0,37.89517"
         id="path5099"
         inkscape:connector-curvature="0"
         style="fill:#66ff00;fill-opacity:1" />
      <path
         d="m 349.43753,543.87146 c -8.33539,0.15436 -12.34874,0.61744 -16.67079,1.77513 -7.33205,2.00666 -11.7313,6.63745 -11.7313,13.9695 0,8.02667 5.24822,12.81181 13.81515,12.81181 7.64077,0 11.80847,-3.01001 14.74129,-6.32873 0.0772,1.54359 0.23154,2.93283 0.46308,3.85898 0.30872,1.38923 1.69795,1.85231 3.24154,1.85231 0.23154,0 0.46308,0 0.69462,0 1.92949,-0.15436 3.16436,-1.23487 3.16436,-2.46974 0,-0.23154 -0.0772,-0.54026 -0.15436,-0.7718 -0.46307,-1.46641 -0.92615,-4.1677 -0.92615,-6.86898 l 0,-21.22438 c 0,-9.18436 -5.09386,-13.27489 -15.5131,-13.27489 -6.25153,0 -9.8018,1.31205 -12.50309,3.3959 -1.77512,1.38923 -3.7818,3.70462 -4.55359,6.09719 -0.0772,0.30872 -0.15436,0.61743 -0.15436,0.92615 0,1.38923 1.08052,2.46975 2.54693,2.93283 0.54025,0.23153 1.15769,0.30871 1.77513,0.30871 1.31205,0 2.46974,-0.54025 3.01,-2.00666 1.31205,-3.55026 4.1677,-5.71129 9.80181,-5.71129 6.17435,0 8.95283,2.23821 8.95283,7.33206 l 0,3.3959 m 0,10.80514 c 0,2.93282 -0.54026,4.39924 -2.00667,6.25154 -2.54693,3.08718 -6.56027,5.55693 -11.42258,5.55693 -4.70795,0 -7.79514,-2.77847 -7.79514,-6.7918 0,-3.70462 1.62078,-6.17437 4.70796,-7.71796 3.16436,-1.54359 7.40925,-2.31538 16.51643,-2.54692 l 0,5.24821"
         id="path5101"
         inkscape:connector-curvature="0"
         style="fill:#66ff00;fill-opacity:1" />
      <path
         d="m 403.3993,542.32787 c 0,-9.49308 -5.01668,-15.1272 -14.27822,-15.1272 -7.33205,0 -12.04001,3.47309 -14.7413,9.03001 0.0772,-1.46641 0.30872,-2.23821 0.30872,-3.24154 l 0,-2.16103 c 0,-2.00667 -1.38923,-3.01 -3.3959,-3.01 -2.16103,0 -3.62744,1.00333 -3.62744,3.01 l 0,37.89517 c 0,2.08385 1.38923,3.08718 3.55026,3.08718 2.00667,0 3.47308,-1.00333 3.47308,-3.08718 l 0,-21.76464 c 0,-3.01 0.7718,-5.32539 2.70129,-7.9495 2.70128,-3.62743 6.17437,-5.47974 10.34206,-5.47974 5.86564,0 8.48975,3.70462 8.48975,10.34206 l 0,24.85182 c 0,2.08385 1.46642,3.08718 3.55026,3.08718 2.08385,0 3.62744,-1.00333 3.62744,-3.08718 l 0,-26.39541"
         id="path5103"
         inkscape:connector-curvature="0"
         style="fill:#66ff00;fill-opacity:1" />
      <path
         d="m 444.42144,532.98914 c 0,0.84897 0.23154,2.31539 0.30872,3.16436 -2.16102,-5.01667 -6.56027,-8.87565 -13.66078,-8.87565 -11.96282,0 -18.909,9.03002 -18.909,22.38208 0,12.96615 7.71797,21.5331 18.75464,21.5331 6.86897,0 11.26822,-3.39591 13.81514,-8.3354 -0.15436,1.08052 -0.30872,2.85565 -0.30872,3.7818 -0.0772,11.49975 -3.55027,16.36207 -13.27488,16.36207 -4.70795,0 -8.18104,-1.62077 -11.03668,-4.93949 -0.61744,-0.69462 -1.38923,-1.00334 -2.23821,-1.00334 -0.77179,0 -1.62077,0.30872 -2.23821,0.7718 -0.92615,0.69462 -1.54359,1.69795 -1.54359,2.70129 0,0.61743 0.30872,1.15769 0.69462,1.69795 2.93282,3.78179 8.25822,6.63744 16.67079,6.63744 10.26487,0 19.68079,-4.09054 19.68079,-21.919 l 0,-36.04286 c 0,-2.08385 -1.23488,-3.08718 -3.31872,-3.08718 -2.31539,0 -3.39591,1.15769 -3.39591,2.77846 l 0,2.39257 m -12.50309,0.23154 c 7.94949,0 12.65745,6.63745 12.65745,15.89899 0,9.64744 -4.78514,16.43925 -12.73463,16.43925 -7.25487,0 -12.50309,-6.02002 -12.50309,-15.89899 0,-10.03334 4.63079,-16.43925 12.58027,-16.43925"
         id="path5105"
         inkscape:connector-curvature="0"
         style="fill:#66ff00;fill-opacity:1" />
      <path
         d="m 494.51463,551.12634 c 2.46974,0 3.93616,-1.46642 3.93616,-4.24488 0,-0.23154 0,-0.3859 0,-0.61744 -0.7718,-10.18769 -7.17771,-19.06335 -18.5231,-19.06335 -12.65744,0 -19.68079,9.41592 -19.68079,22.84515 0,13.42924 7.40925,22.45926 20.14387,22.45926 10.11051,0 14.58694,-5.09386 17.13386,-10.26488 0.30872,-0.46308 0.3859,-0.92616 0.3859,-1.38924 0,-1.38923 -1.08051,-2.31538 -2.39257,-2.70128 -0.61743,-0.15436 -1.15769,-0.30872 -1.69795,-0.30872 -1.08051,0 -2.08385,0.54026 -2.77846,1.92949 -1.85231,4.09051 -4.9395,6.94616 -10.5736,6.94616 -8.41257,0 -13.12053,-6.02001 -13.27489,-15.59027 l 27.32157,0 m -27.09003,-5.63411 c 1.00333,-7.64077 5.01668,-12.58027 12.50309,-12.58027 7.17769,0 10.49642,5.63411 11.42258,11.19104 0,0.15436 0,0.30871 0,0.38589 0,0.69462 -0.30872,1.00334 -1.1577,1.00334 l -22.76797,0"
         id="path5107"
         inkscape:connector-curvature="0"
         style="fill:#66ff00;fill-opacity:1" />
      <path
         d="m 537.43128,528.28118 -6.02001,0 c -1.92949,0 -2.77846,1.31206 -2.77846,3.08719 0,1.8523 0.84897,3.08718 2.70128,3.08718 l 6.09719,0 0,26.62695 c 0,8.18103 4.63078,11.3454 11.03668,11.3454 3.31872,0 5.40257,-0.61744 7.71796,-1.69795 1.15769,-0.61744 1.62077,-1.69795 1.62077,-2.77847 0,-0.54025 -0.0772,-1.15769 -0.30872,-1.69795 -0.46308,-1.23487 -1.38924,-2.08384 -2.54693,-2.08384 -0.54025,0 -1.00333,0.15436 -1.46641,0.38589 -1.31205,0.84898 -2.62411,1.38924 -4.55359,1.38924 -2.85565,0 -4.47642,-1.69796 -4.47642,-5.47975 l 0,-26.00952 9.87899,0 c 1.92948,0 2.93282,-1.23488 2.93282,-3.08718 0,-1.85231 -0.92616,-3.08719 -2.93282,-3.08719 l -9.87899,0 0,-9.4159 c 0,-2.00667 -1.54359,-3.08719 -3.55026,-3.08719 -2.16103,0 -3.47308,1.08052 -3.47308,3.08719 l 0,9.4159"
         id="path5109"
         inkscape:connector-curvature="0"
         style="fill:#66ff00;fill-opacity:1" />
      <path
         d="m 596.41578,551.12634 c 2.46975,0 3.93616,-1.46642 3.93616,-4.24488 0,-0.23154 0,-0.3859 0,-0.61744 -0.77179,-10.18769 -7.17771,-19.06335 -18.5231,-19.06335 -12.65743,0 -19.68079,9.41592 -19.68079,22.84515 0,13.42924 7.40926,22.45926 20.14387,22.45926 10.11052,0 14.58694,-5.09386 17.13387,-10.26488 0.30872,-0.46308 0.38589,-0.92616 0.38589,-1.38924 0,-1.38923 -1.08051,-2.31538 -2.39256,-2.70128 -0.61744,-0.15436 -1.1577,-0.30872 -1.69795,-0.30872 -1.08052,0 -2.08385,0.54026 -2.77847,1.92949 -1.8523,4.09051 -4.9395,6.94616 -10.5736,6.94616 -8.41256,0 -13.12053,-6.02001 -13.27489,-15.59027 l 27.32157,0 m -27.09003,-5.63411 c 1.00334,-7.64077 5.01668,-12.58027 12.50309,-12.58027 7.1777,0 10.49643,5.63411 11.42258,11.19104 0,0.15436 0,0.30871 0,0.38589 0,0.69462 -0.30872,1.00334 -1.15769,1.00334 l -22.76798,0"
         id="path5111"
         inkscape:connector-curvature="0"
         style="fill:#66ff00;fill-opacity:1" />
      <path
         d="m 619.42492,549.11967 -12.96617,17.44258 c -0.46308,0.61744 -0.69462,1.23488 -0.69462,1.85231 0,1.00334 0.61744,1.92949 1.38924,2.62411 0.69461,0.46307 1.54359,0.77179 2.46974,0.77179 0.84898,0 1.77513,-0.3859 2.46975,-1.31205 l 11.65411,-16.43925 11.57694,16.43925 c 0.61744,0.92615 1.54359,1.31205 2.46975,1.31205 0.77179,0 1.54359,-0.30872 2.2382,-0.77179 0.92616,-0.61744 1.46642,-1.62077 1.46642,-2.70129 0,-0.69461 -0.23154,-1.38923 -0.69462,-2.00667 l -12.73463,-17.21104 11.88566,-15.89899 c 0.46307,-0.61744 0.69461,-1.31206 0.69461,-1.92949 0,-1.15769 -0.69462,-2.23821 -1.62077,-2.85565 -0.69462,-0.46307 -1.38923,-0.69461 -2.16103,-0.69461 -0.92615,0 -1.85231,0.3859 -2.54692,1.31205 l -10.57361,15.20438 -10.95949,-15.1272 c -0.69462,-0.92615 -1.62078,-1.31205 -2.54693,-1.31205 -0.69462,0 -1.54359,0.23154 -2.23821,0.69461 -1.00333,0.61744 -1.62077,1.69795 -1.62077,2.77847 0,0.61743 0.23154,1.31205 0.69462,1.92949 l 12.34873,15.89899"
         id="path5113"
         inkscape:connector-curvature="0"
         style="fill:#66ff00;fill-opacity:1" />
      <path
         d="m 654.25586,528.28118 -6.02,0 c -1.92949,0 -2.77847,1.31206 -2.77847,3.08719 0,1.8523 0.84898,3.08718 2.70129,3.08718 l 6.09718,0 0,26.62695 c 0,8.18103 4.63078,11.3454 11.03668,11.3454 3.31872,0 5.40258,-0.61744 7.71796,-1.69795 1.15769,-0.61744 1.62077,-1.69795 1.62077,-2.77847 0,-0.54025 -0.0772,-1.15769 -0.30872,-1.69795 -0.46307,-1.23487 -1.38923,-2.08384 -2.54692,-2.08384 -0.54026,0 -1.00334,0.15436 -1.46641,0.38589 -1.31206,0.84898 -2.62411,1.38924 -4.5536,1.38924 -2.85564,0 -4.47641,-1.69796 -4.47641,-5.47975 l 0,-26.00952 9.87898,0 c 1.92949,0 2.93282,-1.23488 2.93282,-3.08718 0,-1.85231 -0.92615,-3.08719 -2.93282,-3.08719 l -9.87898,0 0,-9.4159 c 0,-2.00667 -1.5436,-3.08719 -3.55027,-3.08719 -2.16102,0 -3.47308,1.08052 -3.47308,3.08719 l 0,9.4159"
         id="path5115"
         inkscape:connector-curvature="0"
         style="fill:#66ff00;fill-opacity:1" />
    </g>
    <g
       style="font-size:22.1884346px;font-style:normal;font-variant:normal;font-weight:normal;font-stretch:normal;text-align:start;line-height:125%;letter-spacing:0px;word-spacing:0px;writing-mode:lr-tb;text-anchor:start;fill:#676c53;fill-opacity:1;stroke:none;font-family:Liberation Mono;-inkscape-font-specification:Liberation Mono"
       id="text4292"
       transform="translate(-60.480585,14.048059)">
      <path
         d="m 115.16873,605.84484 c -2e-5,4.08811 -1.41568,6.13216 -4.24701,6.13216 -1.77681,0 -2.97219,-0.6645 -3.58612,-1.99349 l -0.0542,0 c 0.0289,0.0578 0.0433,0.65727 0.0433,1.79847 l 0,4.58287 -1.96099,0 0,-13.90028 c 0,-1.22786 -0.0217,-2.03681 -0.065,-2.42686 l 1.89599,0 c 0.007,0.0289 0.0181,0.13725 0.0325,0.32503 0.0144,0.18058 0.0289,0.45144 0.0433,0.81256 0.0217,0.35393 0.0325,0.61756 0.0325,0.7909 l 0.0433,0 c 0.36113,-0.75838 0.81978,-1.30731 1.37594,-1.6468 0.56337,-0.34668 1.29648,-0.52003 2.19934,-0.52004 1.43011,10e-6 2.49547,0.49478 3.19609,1.48429 0.7006,0.98231 1.0509,2.5027 1.05092,4.56119 m -2.01516,0 c -1e-5,-1.63234 -0.22031,-2.79521 -0.66089,-3.48861 -0.4406,-0.7006 -1.13399,-1.0509 -2.08017,-1.05091 -1.09065,10e-6 -1.87793,0.39726 -2.36185,1.19176 -0.48393,0.78729 -0.7259,1.98266 -0.72589,3.58612 -1e-5,1.53846 0.24196,2.66521 0.72589,3.38027 0.48392,0.71505 1.26398,1.07258 2.34018,1.07258 0.96063,0 1.66124,-0.36475 2.10184,-1.09425 0.44058,-0.7295 0.66088,-1.92849 0.66089,-3.59696"
         id="path5118"
         inkscape:connector-curvature="0" />
      <path
         d="m 127.98558,601.81452 c -0.80896,-0.13722 -1.57458,-0.20584 -2.29685,-0.20585 -1.16288,1e-5 -2.10184,0.43699 -2.81689,1.31094 -0.71506,0.87397 -1.07259,1.98628 -1.07259,3.33693 l 0,5.50377 -1.95015,0 0,-7.59477 c 0,-0.54892 -0.0506,-1.19536 -0.15168,-1.93932 -0.0939,-0.74394 -0.23113,-1.47344 -0.4117,-2.18851 l 1.85265,0 c 0.28891,0.99676 0.46225,1.89961 0.52004,2.70855 l 0.0542,0 c 0.36114,-0.80894 0.71505,-1.40121 1.06175,-1.7768 0.34669,-0.3828 0.75839,-0.6681 1.2351,-0.85591 0.4767,-0.195 1.05813,-0.29251 1.74431,-0.29252 0.75116,1e-5 1.4951,0.0614 2.23184,0.18418 l 0,1.80931"
         id="path5120"
         inkscape:connector-curvature="0" />
      <path
         d="m 141.85335,605.88818 c -1e-5,1.97183 -0.45505,3.48139 -1.36511,4.52869 -0.90286,1.04009 -2.21018,1.56013 -3.92198,1.56013 -1.67569,0 -2.96135,-0.52727 -3.85697,-1.58179 -0.88841,-1.05453 -1.33261,-2.55687 -1.33261,-4.50703 0,-2.01515 0.45504,-3.52833 1.36511,-4.53953 0.91729,-1.0184 2.21379,-1.52761 3.88948,-1.52762 1.76235,1e-5 3.07329,0.502 3.93281,1.50595 0.8595,1.00398 1.28926,2.52438 1.28927,4.5612 m -2.04766,0 c -1e-5,-1.55289 -0.2492,-2.71215 -0.74756,-3.47778 -0.49116,-0.7656 -1.28928,-1.14841 -2.39436,-1.14842 -1.11954,10e-6 -1.93932,0.39004 -2.45936,1.17009 -0.52005,0.78007 -0.78007,1.93211 -0.78006,3.45611 -1e-5,1.51679 0.26001,2.67244 0.78006,3.46694 0.52004,0.78729 1.3001,1.18093 2.34019,1.18093 1.14841,0 1.97903,-0.38642 2.49186,-1.15926 0.51281,-0.77283 0.76922,-1.9357 0.76923,-3.48861"
         id="path5122"
         inkscape:connector-curvature="0" />
      <path
         d="m 147.22711,600.03771 0,7.43226 c 0,1.12676 0.17696,1.91044 0.53088,2.35102 0.35391,0.43337 0.98591,0.65006 1.89598,0.65006 0.93174,0 1.66846,-0.31781 2.21018,-0.95341 0.5417,-0.63561 0.81256,-1.53123 0.81257,-2.68688 l 0,-6.79305 1.96098,0 0,9.21991 c -1e-5,1.36511 0.0217,2.19934 0.065,2.50269 l -1.84181,0 c -0.007,-0.0361 -0.0145,-0.13362 -0.0217,-0.29252 -0.007,-0.1589 -0.0181,-0.33947 -0.0325,-0.54171 -0.007,-0.20946 -0.0181,-0.59949 -0.0325,-1.17009 l -0.0325,0 c -0.44782,0.80895 -0.96786,1.38316 -1.56012,1.72264 -0.58506,0.33224 -1.31456,0.49837 -2.18851,0.49837 -1.28566,0 -2.22824,-0.3178 -2.82773,-0.95341 -0.59227,-0.64283 -0.8884,-1.70097 -0.8884,-3.17442 l 0,-7.81146 1.95015,0"
         id="path5124"
         inkscape:connector-curvature="0" />
      <path
         d="m 165.9161,609.87516 c -0.35392,0.7584 -0.8234,1.31094 -1.40844,1.65764 -0.58506,0.33947 -1.31456,0.5092 -2.18851,0.5092 -1.45901,0 -2.53159,-0.50198 -3.21776,-1.50595 -0.68616,-1.00397 -1.02925,-2.51714 -1.02924,-4.53953 -1e-5,-4.08809 1.41566,-6.13214 4.247,-6.13215 0.87395,10e-6 1.60345,0.1553 2.18851,0.46587 0.59226,0.31059 1.06535,0.8198 1.41928,1.52762 l 0.0217,0 -0.0217,-1.63596 0,-4.53953 1.95015,0 0,13.66192 c -1e-5,1.22065 0.0217,2.02599 0.065,2.41602 l -1.86348,0 c -0.0289,-0.10834 -0.0542,-0.37197 -0.0758,-0.79089 -0.0217,-0.41892 -0.0325,-0.78367 -0.0325,-1.09426 l -0.0542,0 m -5.82879,-3.94364 c -1e-5,1.60346 0.21306,2.77355 0.63921,3.51028 0.43337,0.7295 1.13398,1.09425 2.10184,1.09425 1.05452,0 1.83458,-0.37919 2.34018,-1.13759 0.50559,-0.76561 0.75839,-1.97904 0.7584,-3.64029 -1e-5,-1.55289 -0.24559,-2.68326 -0.73673,-3.3911 -0.48393,-0.70783 -1.26399,-1.06174 -2.34018,-1.06175 -0.97509,10e-6 -1.67931,0.37198 -2.11267,1.11592 -0.43337,0.74395 -0.65006,1.91405 -0.65005,3.51028"
         id="path5126"
         inkscape:connector-curvature="0" />
      <path
         d="m 177.85539,610.22186 4.117,0 0,1.53845 -10.63918,0 0,-1.53845 4.57203,0 0,-13.00104 -3.13109,0 0,-1.53845 5.08124,0 0,14.53949"
         id="path5128"
         inkscape:connector-curvature="0" />
      <path
         d="m 186.3494,616.36485 c -0.53449,-1e-5 -0.9823,-0.0397 -1.34344,-0.11918 l 0,-1.46261 c 0.27446,0.0433 0.57782,0.065 0.91007,0.065 0.5706,0 1.10509,-0.21307 1.60346,-0.63922 0.50559,-0.42614 0.93174,-1.10509 1.27844,-2.03683 l 0.19501,-0.53087 -5.09207,-11.60343 2.08017,0 2.86022,6.95556 c 0.65727,1.61791 1.01119,2.5352 1.06176,2.75188 l 0.4442,-1.19176 3.3586,-8.51568 2.0585,0 -4.9404,11.7226 c -0.64283,1.69736 -1.31094,2.88912 -2.00432,3.57529 -0.68617,0.68616 -1.50957,1.02924 -2.4702,1.02925"
         id="path5130"
         inkscape:connector-curvature="0" />
      <path
         d="m 216.45763,616.35401 c -1.21343,0 -2.18851,-0.24919 -2.92523,-0.74756 -0.73673,-0.49837 -1.20621,-1.21343 -1.40845,-2.14517 l 1.9935,-0.27085 c 0.12278,0.54171 0.38641,0.95702 0.79089,1.24593 0.4117,0.29613 0.94979,0.4442 1.6143,0.4442 1.79124,0 2.68687,-1.13759 2.68688,-3.41277 l 0,-2.10183 -0.0217,0 c -0.35393,0.74395 -0.84508,1.30732 -1.47345,1.69013 -0.62839,0.38281 -1.37595,0.57421 -2.24268,0.57421 -1.43012,0 -2.47742,-0.46587 -3.14192,-1.39761 -0.65727,-0.93896 -0.98591,-2.41241 -0.98591,-4.42035 0,-2.04404 0.35392,-3.54638 1.06175,-4.50702 0.70783,-0.96785 1.79848,-1.45178 3.27193,-1.45179 0.81617,10e-6 1.524,0.19142 2.1235,0.57422 0.60671,0.37559 1.07258,0.91369 1.39761,1.61429 l 0.0325,0 c -1e-5,-0.21667 0.0144,-0.58142 0.0433,-1.09425 0.0289,-0.52003 0.0578,-0.82339 0.0867,-0.91008 l 1.85264,0 c -0.0433,0.39005 -0.065,1.199 -0.065,2.42686 l 0,8.94905 c -1e-5,1.63957 -0.38282,2.87106 -1.14843,3.69446 -0.76562,0.83062 -1.94655,1.24593 -3.54278,1.24593 m 2.75189,-10.56334 c -1e-5,-1.39399 -0.27087,-2.48824 -0.81257,-3.28276 -0.54171,-0.80172 -1.28566,-1.20258 -2.23184,-1.20259 -0.98953,10e-6 -1.70459,0.3467 -2.14517,1.04008 -0.4406,0.68617 -0.66089,1.8346 -0.66089,3.44527 0,1.09065 0.0903,1.95377 0.27086,2.58938 0.18779,0.62838 0.4767,1.08703 0.86673,1.37594 0.39003,0.28891 0.93535,0.43337 1.63597,0.43337 0.61393,0 1.15203,-0.16974 1.61429,-0.50921 0.46948,-0.34669 0.83061,-0.84868 1.08342,-1.50595 0.25279,-0.6645 0.37919,-1.459 0.3792,-2.38353"
         id="path5132"
         inkscape:connector-curvature="0" />
      <path
         d="m 234.42073,601.81452 c -0.80896,-0.13722 -1.57458,-0.20584 -2.29685,-0.20585 -1.16287,1e-5 -2.10184,0.43699 -2.81689,1.31094 -0.71506,0.87397 -1.07259,1.98628 -1.07258,3.33693 l 0,5.50377 -1.95016,0 0,-7.59477 c 0,-0.54892 -0.0506,-1.19536 -0.15168,-1.93932 -0.0939,-0.74394 -0.23113,-1.47344 -0.4117,-2.18851 l 1.85265,0 c 0.28891,0.99676 0.46226,1.89961 0.52004,2.70855 l 0.0542,0 c 0.36114,-0.80894 0.71506,-1.40121 1.06176,-1.7768 0.34668,-0.3828 0.75838,-0.6681 1.23509,-0.85591 0.4767,-0.195 1.05814,-0.29251 1.74431,-0.29252 0.75116,1e-5 1.49511,0.0614 2.23184,0.18418 l 0,1.80931"
         id="path5134"
         inkscape:connector-curvature="0" />
      <path
         d="m 248.28851,605.88818 c -1e-5,1.97183 -0.45505,3.48139 -1.36511,4.52869 -0.90286,1.04009 -2.21018,1.56013 -3.92198,1.56013 -1.67569,0 -2.96135,-0.52727 -3.85697,-1.58179 -0.88841,-1.05453 -1.33261,-2.55687 -1.33261,-4.50703 0,-2.01515 0.45504,-3.52833 1.36511,-4.53953 0.91729,-1.0184 2.21378,-1.52761 3.88948,-1.52762 1.76235,1e-5 3.07329,0.502 3.93281,1.50595 0.8595,1.00398 1.28926,2.52438 1.28927,4.5612 m -2.04766,0 c -1e-5,-1.55289 -0.2492,-2.71215 -0.74756,-3.47778 -0.49116,-0.7656 -1.28928,-1.14841 -2.39436,-1.14842 -1.11954,10e-6 -1.93933,0.39004 -2.45936,1.17009 -0.52005,0.78007 -0.78007,1.93211 -0.78006,3.45611 -1e-5,1.51679 0.26001,2.67244 0.78006,3.46694 0.52003,0.78729 1.3001,1.18093 2.34018,1.18093 1.14842,0 1.97904,-0.38642 2.49187,-1.15926 0.51281,-0.77283 0.76922,-1.9357 0.76923,-3.48861"
         id="path5136"
         inkscape:connector-curvature="0" />
      <path
         d="m 260.73699,611.76031 -2.21018,0 -1.54929,-5.1029 -0.61754,-2.18851 -0.42254,1.50595 -1.82014,5.78546 -2.19934,0 -1.98266,-11.7226 1.92848,0 1.00758,6.57636 c 0.23835,1.90682 0.35753,3.08414 0.35753,3.53195 0.28169,-1.15565 0.49115,-1.92848 0.62839,-2.31852 l 1.46261,-4.5937 2.091,0 1.40845,4.60454 c 0.23112,0.75839 0.42975,1.52762 0.59588,2.30768 -10e-6,-0.21668 0.0144,-0.48754 0.0433,-0.81257 0.0289,-0.32502 0.065,-0.65727 0.10834,-0.99674 0.0433,-0.34669 0.0867,-0.67533 0.13001,-0.98591 0.0433,-0.31058 0.0758,-0.55615 0.0975,-0.73673 l 1.09425,-6.57636 1.90682,0 -2.0585,11.7226"
         id="path5138"
         inkscape:connector-curvature="0" />
      <path
         d="m 271.08365,610.22186 4.117,0 0,1.53845 -10.63918,0 0,-1.53845 4.57203,0 0,-8.64569 -3.45611,0 0,-1.53846 5.40626,0 0,10.18415 m -2.16684,-12.45933 0,-2.08016 2.16684,0 0,2.08016 -2.16684,0"
         id="path5140"
         inkscape:connector-curvature="0" />
      <path
         d="m 285.72066,611.76031 0,-7.52976 c -1e-5,-0.98229 -0.19142,-1.7118 -0.57422,-2.18851 -0.37559,-0.47669 -0.97869,-0.71505 -1.80931,-0.71506 -0.89563,10e-6 -1.63235,0.32865 -2.21017,0.98592 -0.57061,0.65006 -0.85591,1.53485 -0.8559,2.65437 l 0,6.79304 -1.95016,0 0,-9.2199 c 0,-1.36509 -0.0217,-2.19933 -0.065,-2.5027 l 1.84181,0 c 0.007,0.0361 0.0144,0.13364 0.0217,0.29253 0.007,0.15891 0.0144,0.34309 0.0217,0.55254 0.0144,0.20225 0.0289,0.58867 0.0433,1.15926 l 0.0325,0 c 0.75839,-1.48066 2.00794,-2.221 3.74864,-2.22101 1.24953,1e-5 2.18127,0.33948 2.79522,1.01841 0.61393,0.67174 0.92089,1.70821 0.92091,3.10942 l 0,7.81145 -1.96099,0"
         id="path5142"
         inkscape:connector-curvature="0" />
      <path
         d="m 296.28399,616.35401 c -1.21344,0 -2.18851,-0.24919 -2.92524,-0.74756 -0.73672,-0.49837 -1.20621,-1.21343 -1.40844,-2.14517 l 1.99349,-0.27085 c 0.12278,0.54171 0.38642,0.95702 0.7909,1.24593 0.41169,0.29613 0.94979,0.4442 1.61429,0.4442 1.79125,0 2.68687,-1.13759 2.68688,-3.41277 l 0,-2.10183 -0.0217,0 c -0.35392,0.74395 -0.84507,1.30732 -1.47345,1.69013 -0.62839,0.38281 -1.37595,0.57421 -2.24267,0.57421 -1.43012,0 -2.47743,-0.46587 -3.14192,-1.39761 -0.65728,-0.93896 -0.98592,-2.41241 -0.98591,-4.42035 -10e-6,-2.04404 0.35391,-3.54638 1.06175,-4.50702 0.70783,-0.96785 1.79847,-1.45178 3.27193,-1.45179 0.81616,10e-6 1.524,0.19142 2.1235,0.57422 0.6067,0.37559 1.07257,0.91369 1.39761,1.61429 l 0.0325,0 c -10e-6,-0.21667 0.0144,-0.58142 0.0433,-1.09425 0.0289,-0.52003 0.0578,-0.82339 0.0867,-0.91008 l 1.85265,0 c -0.0434,0.39005 -0.065,1.199 -0.065,2.42686 l 0,8.94905 c -1e-5,1.63957 -0.38281,2.87106 -1.14842,3.69446 -0.76563,0.83062 -1.94655,1.24593 -3.54278,1.24593 m 2.75188,-10.56334 c -1e-5,-1.39399 -0.27086,-2.48824 -0.81256,-3.28276 -0.54172,-0.80172 -1.28567,-1.20258 -2.23185,-1.20259 -0.98952,10e-6 -1.70458,0.3467 -2.14517,1.04008 -0.44059,0.68617 -0.66089,1.8346 -0.66088,3.44527 -1e-5,1.09065 0.0903,1.95377 0.27085,2.58938 0.18779,0.62838 0.4767,1.08703 0.86674,1.37594 0.39002,0.28891 0.93534,0.43337 1.63596,0.43337 0.61393,0 1.15203,-0.16974 1.6143,-0.50921 0.46947,-0.34669 0.83061,-0.84868 1.08342,-1.50595 0.25279,-0.6645 0.37918,-1.459 0.37919,-2.38353"
         id="path5144"
         inkscape:connector-curvature="0" />
      <path
         d="m 318.28825,601.57617 0,-1.53846 1.84181,0 0.62839,-3.05524 1.3001,0 0,3.05524 4.68037,0 0,1.53846 -4.68037,0 0,7.0639 c -1e-5,0.5706 0.15167,0.99313 0.45504,1.2676 0.31057,0.27447 0.81616,0.4117 1.51678,0.4117 0.96785,0 2.04043,-0.12279 3.21776,-0.36837 l 0,1.48429 c -1.22066,0.33225 -2.43048,0.49837 -3.62946,0.49837 -1.1701,0 -2.04766,-0.24557 -2.63271,-0.73672 -0.58505,-0.49838 -0.87757,-1.28205 -0.87757,-2.35102 l 0,-7.26975 -1.82014,0"
         id="path5146"
         inkscape:connector-curvature="0" />
      <path
         d="m 333.02276,606.31071 c 0,1.31456 0.28891,2.34381 0.86674,3.08775 0.58504,0.74395 1.38316,1.11592 2.39435,1.11592 0.74394,0 1.394,-0.1589 1.95016,-0.4767 0.56337,-0.32503 0.93895,-0.76562 1.12676,-1.32177 l 1.7118,0.48753 c -0.31782,0.89563 -0.90286,1.5818 -1.75514,2.0585 -0.84508,0.47671 -1.85627,0.71506 -3.03358,0.71506 -1.70458,0 -3.01552,-0.53088 -3.93281,-1.59263 -0.9173,-1.06175 -1.37594,-2.58214 -1.37594,-4.56119 0,-1.92848 0.44781,-3.40916 1.34344,-4.44203 0.90284,-1.04007 2.20295,-1.56011 3.90031,-1.56012 1.69735,1e-5 2.983,0.51644 3.85697,1.54929 0.87395,1.03287 1.31093,2.59299 1.31094,4.68037 l 0,0.26002 -8.364,0 m 3.21776,-5.04873 c -0.96786,10e-6 -1.73348,0.31781 -2.29685,0.95341 -0.56338,0.62839 -0.86313,1.49512 -0.89924,2.6002 l 6.32717,0 c -0.20225,-2.36906 -1.24594,-3.5536 -3.13108,-3.55361"
         id="path5148"
         inkscape:connector-curvature="0" />
      <path
         d="m 352.93602,611.76031 -3.47778,-4.81038 -3.49944,4.81038 -2.10184,0 4.49619,-6.02381 -4.30117,-5.69879 2.156,0 3.25026,4.5612 3.22859,-4.5612 2.17767,0 -4.30117,5.67712 4.55036,6.04548 -2.17767,0"
         id="path5150"
         inkscape:connector-curvature="0" />
      <path
         d="m 358.20143,601.57617 0,-1.53846 1.84181,0 0.62838,-3.05524 1.30011,0 0,3.05524 4.68037,0 0,1.53846 -4.68037,0 0,7.0639 c -10e-6,0.5706 0.15167,0.99313 0.45503,1.2676 0.31058,0.27447 0.81617,0.4117 1.51679,0.4117 0.96785,0 2.04043,-0.12279 3.21776,-0.36837 l 0,1.48429 c -1.22067,0.33225 -2.43048,0.49837 -3.62946,0.49837 -1.1701,0 -2.04767,-0.24557 -2.63271,-0.73672 -0.58505,-0.49838 -0.87757,-1.28205 -0.87757,-2.35102 l 0,-7.26975 -1.82014,0"
         id="path5152"
         inkscape:connector-curvature="0" />
      <path
         d="m 394.63684,605.88818 c -1e-5,1.97183 -0.45505,3.48139 -1.36511,4.52869 -0.90286,1.04009 -2.21019,1.56013 -3.92198,1.56013 -1.67569,0 -2.96135,-0.52727 -3.85697,-1.58179 -0.88841,-1.05453 -1.33261,-2.55687 -1.33261,-4.50703 0,-2.01515 0.45503,-3.52833 1.36511,-4.53953 0.91729,-1.0184 2.21378,-1.52761 3.88948,-1.52762 1.76235,1e-5 3.07329,0.502 3.93281,1.50595 0.8595,1.00398 1.28926,2.52438 1.28927,4.5612 m -2.04767,0 c -1e-5,-1.55289 -0.24919,-2.71215 -0.74755,-3.47778 -0.49116,-0.7656 -1.28928,-1.14841 -2.39436,-1.14842 -1.11954,10e-6 -1.93933,0.39004 -2.45936,1.17009 -0.52005,0.78007 -0.78007,1.93211 -0.78007,3.45611 0,1.51679 0.26002,2.67244 0.78007,3.46694 0.52003,0.78729 1.30009,1.18093 2.34018,1.18093 1.14842,0 1.97904,-0.38642 2.49187,-1.15926 0.51281,-0.77283 0.76921,-1.9357 0.76922,-3.48861"
         id="path5154"
         inkscape:connector-curvature="0" />
      <path
         d="m 407.37784,601.81452 c -0.80896,-0.13722 -1.57458,-0.20584 -2.29685,-0.20585 -1.16288,1e-5 -2.10184,0.43699 -2.81689,1.31094 -0.71506,0.87397 -1.07259,1.98628 -1.07258,3.33693 l 0,5.50377 -1.95016,0 0,-7.59477 c 0,-0.54892 -0.0506,-1.19536 -0.15168,-1.93932 -0.0939,-0.74394 -0.23113,-1.47344 -0.4117,-2.18851 l 1.85265,0 c 0.28891,0.99676 0.46225,1.89961 0.52004,2.70855 l 0.0542,0 c 0.36114,-0.80894 0.71505,-1.40121 1.06175,-1.7768 0.34669,-0.3828 0.75839,-0.6681 1.2351,-0.85591 0.4767,-0.195 1.05813,-0.29251 1.74431,-0.29252 0.75116,1e-5 1.49511,0.0614 2.23184,0.18418 l 0,1.80931"
         id="path5156"
         inkscape:connector-curvature="0" />
      <path
         d="m 416.02355,616.35401 c -1.21344,0 -2.18851,-0.24919 -2.92523,-0.74756 -0.73673,-0.49837 -1.20621,-1.21343 -1.40845,-2.14517 l 1.99349,-0.27085 c 0.12279,0.54171 0.38642,0.95702 0.7909,1.24593 0.41169,0.29613 0.94979,0.4442 1.6143,0.4442 1.79124,0 2.68687,-1.13759 2.68688,-3.41277 l 0,-2.10183 -0.0217,0 c -0.35393,0.74395 -0.84508,1.30732 -1.47345,1.69013 -0.62839,0.38281 -1.37595,0.57421 -2.24268,0.57421 -1.43012,0 -2.47742,-0.46587 -3.14192,-1.39761 -0.65728,-0.93896 -0.98591,-2.41241 -0.98591,-4.42035 0,-2.04404 0.35391,-3.54638 1.06175,-4.50702 0.70783,-0.96785 1.79847,-1.45178 3.27193,-1.45179 0.81617,10e-6 1.524,0.19142 2.1235,0.57422 0.60671,0.37559 1.07258,0.91369 1.39761,1.61429 l 0.0325,0 c 0,-0.21667 0.0144,-0.58142 0.0433,-1.09425 0.0289,-0.52003 0.0578,-0.82339 0.0867,-0.91008 l 1.85265,0 c -0.0434,0.39005 -0.065,1.199 -0.065,2.42686 l 0,8.94905 c -10e-6,1.63957 -0.38282,2.87106 -1.14843,3.69446 -0.76562,0.83062 -1.94655,1.24593 -3.54278,1.24593 m 2.75189,-10.56334 c -10e-6,-1.39399 -0.27087,-2.48824 -0.81257,-3.28276 -0.54172,-0.80172 -1.28566,-1.20258 -2.23184,-1.20259 -0.98953,10e-6 -1.70459,0.3467 -2.14517,1.04008 -0.4406,0.68617 -0.66089,1.8346 -0.66089,3.44527 0,1.09065 0.0903,1.95377 0.27085,2.58938 0.18779,0.62838 0.47671,1.08703 0.86674,1.37594 0.39003,0.28891 0.93535,0.43337 1.63596,0.43337 0.61394,0 1.15203,-0.16974 1.6143,-0.50921 0.46947,-0.34669 0.83061,-0.84868 1.08342,-1.50595 0.25279,-0.6645 0.37919,-1.459 0.3792,-2.38353"
         id="path5158"
         inkscape:connector-curvature="0" />
      <path
         d="m 434.59335,610.55772 c 0.18778,0 0.40086,-0.0253 0.63922,-0.0758 l 0,1.21343 c -0.49116,0.11556 -0.99315,0.17335 -1.50595,0.17335 -0.72229,0 -1.24956,-0.1878 -1.5818,-0.56338 -0.32503,-0.38281 -0.50921,-0.97869 -0.55254,-1.78764 l -0.065,0 c -0.46949,0.87396 -1.02564,1.50234 -1.66846,1.88515 -0.63561,0.3828 -1.4229,0.57421 -2.36186,0.57421 -1.1412,0 -2.00071,-0.31058 -2.57854,-0.93174 -0.57782,-0.62116 -0.86673,-1.47345 -0.86673,-2.55687 0,-2.52075 1.63957,-3.79919 4.91872,-3.83531 l 2.55687,-0.0433 0,-0.63922 c 0,-0.94618 -0.19141,-1.62512 -0.57421,-2.03683 -0.38281,-0.41891 -0.99314,-0.62837 -1.83098,-0.62838 -0.85229,10e-6 -1.46623,0.15168 -1.84181,0.45503 -0.37559,0.30337 -0.5995,0.77285 -0.67172,1.40845 l -2.03683,-0.18418 c 0.33225,-2.10905 1.85987,-3.16358 4.58287,-3.16359 1.44455,10e-6 2.52797,0.33948 3.25025,1.01841 0.7295,0.67174 1.09425,1.64681 1.09426,2.92524 l 0,5.04873 c -10e-6,0.57783 0.0758,1.01481 0.22752,1.31094 0.15166,0.28891 0.44058,0.43337 0.86673,0.43337 m -6.59802,-0.065 c 0.69338,10e-6 1.30732,-0.16612 1.84181,-0.49837 0.53448,-0.33225 0.94979,-0.77645 1.24593,-1.33261 0.29613,-0.55615 0.4442,-1.13036 0.4442,-1.72263 l 0,-0.96425 -2.05849,0.0433 c -0.8523,0.0145 -1.50235,0.10835 -1.95016,0.28169 -0.44782,0.17335 -0.79812,0.4406 -1.05092,0.80173 -0.24557,0.35392 -0.36836,0.82701 -0.36836,1.41928 0,0.59227 0.1589,1.06898 0.47671,1.43011 0.32502,0.36115 0.79811,0.54172 1.41928,0.54171"
         id="path5160"
         inkscape:connector-curvature="0" />
      <path
         d="m 445.37337,611.76031 0,-7.52976 c -1e-5,-0.98229 -0.19142,-1.7118 -0.57422,-2.18851 -0.37559,-0.47669 -0.97869,-0.71505 -1.80931,-0.71506 -0.89563,10e-6 -1.63235,0.32865 -2.21017,0.98592 -0.57061,0.65006 -0.85591,1.53485 -0.8559,2.65437 l 0,6.79304 -1.95016,0 0,-9.2199 c 0,-1.36509 -0.0217,-2.19933 -0.065,-2.5027 l 1.84181,0 c 0.007,0.0361 0.0144,0.13364 0.0217,0.29253 0.007,0.15891 0.0144,0.34309 0.0217,0.55254 0.0144,0.20225 0.0289,0.58867 0.0433,1.15926 l 0.0325,0 c 0.75839,-1.48066 2.00794,-2.221 3.74864,-2.22101 1.24953,1e-5 2.18127,0.33948 2.79522,1.01841 0.61393,0.67174 0.92089,1.70821 0.92091,3.10942 l 0,7.81145 -1.96099,0"
         id="path5162"
         inkscape:connector-curvature="0" />
      <path
         d="m 457.34517,610.22186 4.117,0 0,1.53845 -10.63918,0 0,-1.53845 4.57203,0 0,-8.64569 -3.45611,0 0,-1.53846 5.40626,0 0,10.18415 m -2.16684,-12.45933 0,-2.08016 2.16684,0 0,2.08016 -2.16684,0"
         id="path5164"
         inkscape:connector-curvature="0" />
      <path
         d="m 463.98652,605.88818 c 0,-1.95015 0.46587,-3.44888 1.39762,-4.49619 0.93173,-1.0473 2.27878,-1.57095 4.04115,-1.57096 1.31454,1e-5 2.39796,0.31782 3.25026,0.95341 0.85228,0.62839 1.37954,1.47707 1.58179,2.54604 l -2.08016,0.15167 c -0.11558,-0.65726 -0.40449,-1.17369 -0.86674,-1.54929 -0.46227,-0.38279 -1.11954,-0.5742 -1.97182,-0.57421 -1.14121,10e-6 -1.97905,0.35393 -2.51354,1.06175 -0.52726,0.70785 -0.7909,1.85266 -0.79089,3.43444 -1e-5,1.60347 0.26363,2.77717 0.79089,3.52112 0.53449,0.73672 1.36872,1.10509 2.5027,1.10509 0.78006,0 1.4265,-0.19141 1.93932,-0.57422 0.51281,-0.3828 0.83062,-0.96785 0.95341,-1.75514 l 2.0585,0.13001 c -0.0939,0.6934 -0.35754,1.32539 -0.79089,1.89599 -0.42616,0.56338 -0.99315,1.00758 -1.70097,1.3326 -0.70785,0.31781 -1.49874,0.47671 -2.37269,0.47671 -1.76959,0 -3.11664,-0.52004 -4.04116,-1.56013 -0.92452,-1.04008 -1.38678,-2.54964 -1.38678,-4.52869"
         id="path5166"
         inkscape:connector-curvature="0" />
      <path
         d="m 487.81091,610.55772 c 0.18778,0 0.40085,-0.0253 0.63922,-0.0758 l 0,1.21343 c -0.49116,0.11556 -0.99315,0.17335 -1.50595,0.17335 -0.72229,0 -1.24956,-0.1878 -1.5818,-0.56338 -0.32503,-0.38281 -0.50921,-0.97869 -0.55254,-1.78764 l -0.065,0 c -0.46949,0.87396 -1.02564,1.50234 -1.66846,1.88515 -0.63561,0.3828 -1.4229,0.57421 -2.36186,0.57421 -1.1412,0 -2.00071,-0.31058 -2.57854,-0.93174 -0.57782,-0.62116 -0.86673,-1.47345 -0.86673,-2.55687 0,-2.52075 1.63957,-3.79919 4.91872,-3.83531 l 2.55687,-0.0433 0,-0.63922 c 0,-0.94618 -0.19141,-1.62512 -0.57421,-2.03683 -0.38281,-0.41891 -0.99314,-0.62837 -1.83098,-0.62838 -0.85229,10e-6 -1.46623,0.15168 -1.84181,0.45503 -0.37559,0.30337 -0.5995,0.77285 -0.67172,1.40845 l -2.03683,-0.18418 c 0.33225,-2.10905 1.85987,-3.16358 4.58287,-3.16359 1.44455,10e-6 2.52797,0.33948 3.25025,1.01841 0.7295,0.67174 1.09425,1.64681 1.09426,2.92524 l 0,5.04873 c -1e-5,0.57783 0.0758,1.01481 0.22752,1.31094 0.15166,0.28891 0.44058,0.43337 0.86673,0.43337 m -6.59802,-0.065 c 0.69338,10e-6 1.30732,-0.16612 1.84181,-0.49837 0.53448,-0.33225 0.94979,-0.77645 1.24593,-1.33261 0.29613,-0.55615 0.4442,-1.13036 0.4442,-1.72263 l 0,-0.96425 -2.05849,0.0433 c -0.8523,0.0145 -1.50235,0.10835 -1.95016,0.28169 -0.44782,0.17335 -0.79812,0.4406 -1.05092,0.80173 -0.24557,0.35392 -0.36836,0.82701 -0.36836,1.41928 0,0.59227 0.1589,1.06898 0.47671,1.43011 0.32502,0.36115 0.79811,0.54172 1.41928,0.54171"
         id="path5168"
         inkscape:connector-curvature="0" />
      <path
         d="m 497.16084,610.22186 4.117,0 0,1.53845 -10.63918,0 0,-1.53845 4.57203,0 0,-13.00104 -3.13109,0 0,-1.53845 5.08124,0 0,14.53949"
         id="path5170"
         inkscape:connector-curvature="0" />
      <path
         d="m 510.46523,610.22186 4.11699,0 0,1.53845 -10.63918,0 0,-1.53845 4.57203,0 0,-13.00104 -3.13108,0 0,-1.53845 5.08124,0 0,14.53949"
         id="path5172"
         inkscape:connector-curvature="0" />
      <path
         d="m 518.95925,616.36485 c -0.53448,-1e-5 -0.9823,-0.0397 -1.34344,-0.11918 l 0,-1.46261 c 0.27447,0.0433 0.57783,0.065 0.91008,0.065 0.57059,0 1.10508,-0.21307 1.60346,-0.63922 0.50559,-0.42614 0.93173,-1.10509 1.27843,-2.03683 l 0.19502,-0.53087 -5.09207,-11.60343 2.08016,0 2.86023,6.95556 c 0.65727,1.61791 1.01119,2.5352 1.06175,2.75188 l 0.4442,-1.19176 3.3586,-8.51568 2.0585,0 -4.94039,11.7226 c -0.64284,1.69736 -1.31095,2.88912 -2.00433,3.57529 -0.68617,0.68616 -1.50957,1.02924 -2.4702,1.02925"
         id="path5174"
         inkscape:connector-curvature="0" />
      <path
         d="m 553.88868,608.41255 c -10e-6,1.11231 -0.42254,1.98627 -1.2676,2.62187 -0.83785,0.62839 -2.00072,0.94258 -3.48861,0.94258 -1.4879,0 -2.62188,-0.23113 -3.40194,-0.69339 -0.77284,-0.46948 -1.27843,-1.20621 -1.51678,-2.21018 l 1.72263,-0.33586 c 0.13723,0.62117 0.42975,1.0762 0.87757,1.36511 0.45503,0.28169 1.22787,0.42254 2.31852,0.42254 1.95015,0 2.92522,-0.61755 2.92523,-1.85265 -10e-6,-0.46226 -0.17696,-0.83423 -0.53087,-1.11592 -0.35393,-0.28891 -0.89564,-0.52365 -1.62513,-0.70423 -1.90683,-0.46947 -3.11664,-0.83783 -3.62946,-1.10508 -0.51282,-0.26724 -0.90646,-0.59949 -1.18093,-0.99675 -0.27446,-0.40447 -0.4117,-0.90645 -0.41169,-1.50595 -10e-6,-1.06175 0.3828,-1.89237 1.14842,-2.49187 0.76561,-0.59948 1.87431,-0.89923 3.3261,-0.89924 1.2712,10e-6 2.28601,0.24198 3.04441,0.72589 0.75838,0.47672 1.23147,1.17372 1.41928,2.091 l -1.75514,0.21669 c -0.0795,-0.52003 -0.33587,-0.91368 -0.76923,-1.18093 -0.43338,-0.26723 -1.07982,-0.40085 -1.93932,-0.40086 -1.76959,10e-6 -2.65438,0.54533 -2.65438,1.63596 0,0.43338 0.14806,0.78007 0.4442,1.04008 0.30336,0.26003 0.78728,0.46949 1.45178,0.62839 l 1.28927,0.33586 c 1.17731,0.28891 2.02238,0.57421 2.53521,0.8559 0.52003,0.28169 0.92812,0.63561 1.22426,1.06175 0.29612,0.41892 0.44419,0.93535 0.4442,1.54929"
         id="path5176"
         inkscape:connector-curvature="0" />
      <path
         d="m 563.78032,610.22186 4.117,0 0,1.53845 -10.63918,0 0,-1.53845 4.57203,0 0,-8.64569 -3.45611,0 0,-1.53846 5.40626,0 0,10.18415 m -2.16684,-12.45933 0,-2.08016 2.16684,0 0,2.08016 -2.16684,0"
         id="path5178"
         inkscape:connector-curvature="0" />
      <path
         d="m 578.41731,611.76031 0,-7.52976 c -1e-5,-0.98229 -0.19141,-1.7118 -0.57421,-2.18851 -0.37559,-0.47669 -0.9787,-0.71505 -1.80931,-0.71506 -0.89563,10e-6 -1.63236,0.32865 -2.21018,0.98592 -0.5706,0.65006 -0.8559,1.53485 -0.8559,2.65437 l 0,6.79304 -1.95015,0 0,-9.2199 c -10e-6,-1.36509 -0.0217,-2.19933 -0.065,-2.5027 l 1.84181,0 c 0.007,0.0361 0.0145,0.13364 0.0217,0.29253 0.007,0.15891 0.0144,0.34309 0.0217,0.55254 0.0144,0.20225 0.0289,0.58867 0.0433,1.15926 l 0.0325,0 c 0.75839,-1.48066 2.00793,-2.221 3.74863,-2.22101 1.24954,1e-5 2.18128,0.33948 2.79522,1.01841 0.61393,0.67174 0.9209,1.70821 0.92091,3.10942 l 0,7.81145 -1.96099,0"
         id="path5180"
         inkscape:connector-curvature="0" />
      <path
         d="m 583.72609,605.88818 c 0,-1.95015 0.46587,-3.44888 1.39761,-4.49619 0.93174,-1.0473 2.27879,-1.57095 4.04115,-1.57096 1.31455,1e-5 2.39796,0.31782 3.25026,0.95341 0.85228,0.62839 1.37955,1.47707 1.5818,2.54604 l -2.08017,0.15167 c -0.11557,-0.65726 -0.40449,-1.17369 -0.86674,-1.54929 -0.46226,-0.38279 -1.11954,-0.5742 -1.97182,-0.57421 -1.14121,10e-6 -1.97905,0.35393 -2.51353,1.06175 -0.52727,0.70785 -0.7909,1.85266 -0.7909,3.43444 0,1.60347 0.26363,2.77717 0.7909,3.52112 0.53448,0.73672 1.36871,1.10509 2.5027,1.10509 0.78005,0 1.42649,-0.19141 1.93932,-0.57422 0.51281,-0.3828 0.83061,-0.96785 0.95341,-1.75514 l 2.05849,0.13001 c -0.0939,0.6934 -0.35754,1.32539 -0.79089,1.89599 -0.42616,0.56338 -0.99315,1.00758 -1.70097,1.3326 -0.70784,0.31781 -1.49874,0.47671 -2.37269,0.47671 -1.76959,0 -3.11664,-0.52004 -4.04116,-1.56013 -0.92452,-1.04008 -1.38677,-2.54964 -1.38677,-4.52869"
         id="path5182"
         inkscape:connector-curvature="0" />
      <path
         d="m 599.11064,606.31071 c -10e-6,1.31456 0.2889,2.34381 0.86673,3.08775 0.58504,0.74395 1.38316,1.11592 2.39436,1.11592 0.74394,0 1.39399,-0.1589 1.95015,-0.4767 0.56337,-0.32503 0.93896,-0.76562 1.12676,-1.32177 l 1.7118,0.48753 c -0.31781,0.89563 -0.90286,1.5818 -1.75514,2.0585 -0.84507,0.47671 -1.85626,0.71506 -3.03357,0.71506 -1.70459,0 -3.01552,-0.53088 -3.93281,-1.59263 -0.9173,-1.06175 -1.37595,-2.58214 -1.37595,-4.56119 0,-1.92848 0.44781,-3.40916 1.34344,-4.44203 0.90285,-1.04007 2.20295,-1.56011 3.90031,-1.56012 1.69735,1e-5 2.98301,0.51644 3.85698,1.54929 0.87394,1.03287 1.31092,2.59299 1.31094,4.68037 l 0,0.26002 -8.364,0 m 3.21775,-5.04873 c -0.96786,10e-6 -1.73347,0.31781 -2.29685,0.95341 -0.56338,0.62839 -0.86313,1.49512 -0.89924,2.6002 l 6.32718,0 c -0.20225,-2.36906 -1.24595,-3.5536 -3.13109,-3.55361"
         id="path5184"
         inkscape:connector-curvature="0" />
      <path
         d="m 623.79091,611.76031 0,-1.2676 c 0.35392,-0.78728 0.90285,-1.57817 1.6468,-2.37269 0.75117,-0.80172 1.76958,-1.7154 3.05524,-2.74105 1.14842,-0.91728 1.97543,-1.7154 2.48104,-2.39435 0.50558,-0.67894 0.75838,-1.3326 0.75839,-1.96099 -1e-5,-0.80172 -0.2492,-1.41927 -0.74756,-1.85265 -0.49838,-0.43336 -1.20983,-0.65004 -2.13434,-0.65005 -0.8234,10e-6 -1.49151,0.22753 -2.00432,0.68255 -0.5056,0.44783 -0.80535,1.07982 -0.89924,1.89599 l -1.99349,-0.18419 c 0.14445,-1.22786 0.64643,-2.19932 1.50595,-2.91439 0.85951,-0.72227 1.98988,-1.08341 3.3911,-1.08342 1.53845,10e-6 2.73743,0.3467 3.59696,1.04008 0.8595,0.6934 1.28925,1.6757 1.28927,2.9469 -2e-5,0.83063 -0.27448,1.66125 -0.8234,2.49187 -0.54895,0.8234 -1.36873,1.66847 -2.45937,2.5352 -1.4879,1.18454 -2.52076,2.0585 -3.09858,2.62187 -0.5706,0.55616 -0.97508,1.09787 -1.21343,1.62513 l 7.83313,0 0,1.58179 -10.18415,0"
         id="path5186"
         inkscape:connector-curvature="0" />
      <path
         d="m 647.48535,604.44723 c -1e-5,2.44131 -0.45143,4.3084 -1.35427,5.60128 -0.89564,1.28566 -2.22102,1.92849 -3.97615,1.92849 -1.75515,0 -3.07331,-0.63922 -3.95449,-1.91765 -0.88118,-1.28566 -1.32177,-3.15636 -1.32177,-5.61212 0,-2.52074 0.42976,-4.40589 1.28927,-5.65545 0.85951,-1.24953 2.21017,-1.8743 4.05199,-1.87431 1.79847,10e-6 3.12385,0.632 3.97615,1.89598 0.8595,1.25678 1.28926,3.1347 1.28927,5.63378 m -1.98266,0 c -10e-6,-2.0946 -0.25642,-3.60777 -0.76922,-4.53953 -0.50561,-0.93895 -1.34345,-1.40843 -2.51354,-1.40844 -1.19899,10e-6 -2.06211,0.46227 -2.58937,1.38678 -0.52005,0.92452 -0.78007,2.44492 -0.78006,4.56119 -10e-6,2.0585 0.26363,3.56446 0.79089,4.51786 0.53449,0.94619 1.37955,1.41928 2.53521,1.41928 1.14841,0 1.98987,-0.48754 2.52436,-1.46261 0.53448,-0.97508 0.80172,-2.46658 0.80173,-4.47453 m -4.5937,1.30011 0,-2.69772 2.54604,0 0,2.69772 -2.54604,0"
         id="path5188"
         inkscape:connector-curvature="0" />
      <path
         d="m 650.54058,611.76031 0,-1.57095 4.75622,0 0,-11.06172 c -0.26725,0.56339 -0.90286,1.05454 -1.90682,1.47345 -0.99675,0.41894 -1.97905,0.6284 -2.9469,0.62839 l 0,-1.60347 c 1.06897,2e-5 2.07655,-0.23472 3.02274,-0.70422 0.9534,-0.46947 1.6179,-1.06174 1.99349,-1.77681 l 1.79848,0 0,13.04438 3.82447,0 0,1.57095 -10.54168,0"
         id="path5190"
         inkscape:connector-curvature="0" />
      <path
         d="m 663.70412,611.76031 0,-1.2676 c 0.35392,-0.78728 0.90285,-1.57817 1.6468,-2.37269 0.75117,-0.80172 1.76958,-1.7154 3.05524,-2.74105 1.14842,-0.91728 1.97543,-1.7154 2.48103,-2.39435 0.50559,-0.67894 0.75839,-1.3326 0.7584,-1.96099 -10e-6,-0.80172 -0.2492,-1.41927 -0.74756,-1.85265 -0.49838,-0.43336 -1.20983,-0.65004 -2.13434,-0.65005 -0.8234,10e-6 -1.49151,0.22753 -2.00433,0.68255 -0.5056,0.44783 -0.80534,1.07982 -0.89923,1.89599 l -1.9935,-0.18419 c 0.14446,-1.22786 0.64644,-2.19932 1.50596,-2.91439 0.85951,-0.72227 1.98987,-1.08341 3.3911,-1.08342 1.53845,10e-6 2.73743,0.3467 3.59695,1.04008 0.85951,0.6934 1.28926,1.6757 1.28927,2.9469 -10e-6,0.83063 -0.27447,1.66125 -0.82339,2.49187 -0.54895,0.8234 -1.36873,1.66847 -2.45937,2.5352 -1.4879,1.18454 -2.52076,2.0585 -3.09858,2.62187 -0.5706,0.55616 -0.97508,1.09787 -1.21343,1.62513 l 7.83313,0 0,1.58179 -10.18415,0"
         id="path5192"
         inkscape:connector-curvature="0" />
    </g>
  </g>
</svg>
